<svg xmlns="http://www.w3.org/2000/svg" xmlns:xlink="http://www.w3.org/1999/xlink" width="500" zoomAndPan="magnify" viewBox="0 0 375 374.999991" height="500" preserveAspectRatio="xMidYMid meet" version="1.0"><defs><clipPath id="487824d39d"><path d="M 20.726562 28.039062 L 354.476562 28.039062 L 354.476562 276 L 20.726562 276 Z M 20.726562 28.039062 " clip-rule="nonzero"/></clipPath><clipPath id="ee80580549"><path d="M 54.527344 297.558594 L 320.777344 297.558594 L 320.777344 327.558594 L 54.527344 327.558594 Z M 54.527344 297.558594 " clip-rule="nonzero"/></clipPath><clipPath id="34a8236b8f"><path d="M 57.027344 322.519531 L 88.980469 322.519531 L 88.980469 318.949219 L 65.277344 318.949219 C 63.902344 318.949219 62.777344 317.835938 62.777344 316.476562 C 62.777344 315.113281 63.902344 314 65.277344 314 L 88.980469 314 L 88.980469 309.335938 L 74.632812 309.335938 C 73.578125 309.335938 72.714844 308.480469 72.714844 307.4375 C 72.714844 306.390625 73.578125 305.539062 74.632812 305.539062 L 88.980469 305.539062 L 88.980469 301.6875 L 81.476562 301.6875 C 80.332031 301.6875 79.398438 300.757812 79.398438 299.628906 C 79.398438 298.496094 80.332031 297.570312 81.476562 297.570312 C 88.605469 297.570312 95.722656 297.625 102.851562 297.625 C 105.578125 297.625 107.792969 297.996094 109.472656 298.726562 C 111.152344 299.464844 112.546875 300.515625 113.648438 301.890625 C 114.746094 303.269531 115.539062 304.863281 116.03125 306.6875 C 116.53125 308.511719 116.777344 310.441406 116.777344 312.484375 C 116.777344 315.679688 116.414062 318.160156 115.675781 319.921875 C 114.941406 321.683594 113.921875 323.160156 112.617188 324.351562 C 111.308594 325.542969 109.910156 326.335938 108.410156 326.734375 C 106.367188 327.277344 104.507812 327.546875 102.851562 327.546875 C 87.566406 327.546875 72.367188 327.472656 57.027344 327.472656 C 55.652344 327.472656 54.527344 326.355469 54.527344 324.996094 C 54.527344 323.632812 55.652344 322.519531 57.027344 322.519531 Z M 287.917969 297.625 L 298.28125 297.625 L 304.390625 307.699219 L 310.472656 297.625 L 320.777344 297.625 L 309.050781 315.019531 L 309.050781 327.546875 L 299.6875 327.546875 L 299.6875 315.019531 Z M 260.082031 327.546875 L 260.082031 297.625 L 275.632812 297.625 C 278.515625 297.625 280.722656 297.871094 282.242188 298.363281 C 283.769531 298.851562 285 299.765625 285.933594 301.089844 C 286.867188 302.417969 287.332031 304.042969 287.332031 305.949219 C 287.332031 307.605469 286.972656 309.042969 286.257812 310.246094 C 285.546875 311.460938 284.5625 312.433594 283.304688 313.1875 C 282.511719 313.660156 281.414062 314.058594 280.027344 314.371094 C 281.140625 314.738281 281.949219 315.101562 282.453125 315.472656 C 282.792969 315.714844 283.289062 316.242188 283.945312 317.046875 C 284.589844 317.847656 285.027344 318.464844 285.246094 318.90625 L 289.78125 327.546875 L 279.234375 327.546875 L 274.25 318.425781 C 273.617188 317.238281 273.054688 316.472656 272.5625 316.117188 C 271.886719 315.660156 271.121094 315.429688 270.269531 315.429688 L 269.445312 315.429688 L 269.445312 327.546875 Z M 269.445312 309.789062 L 273.390625 309.789062 C 273.8125 309.789062 274.644531 309.648438 275.867188 309.375 C 276.484375 309.257812 276.992188 308.945312 277.378906 308.4375 C 277.769531 307.925781 277.96875 307.351562 277.96875 306.695312 C 277.96875 305.726562 277.660156 304.980469 277.039062 304.464844 C 276.421875 303.945312 275.261719 303.6875 273.554688 303.6875 L 269.445312 303.6875 Z M 229.492188 297.625 L 254.464844 297.625 L 254.464844 304.019531 L 238.855469 304.019531 L 238.855469 308.785156 L 253.324219 308.785156 L 253.324219 314.886719 L 238.855469 314.886719 L 238.855469 320.777344 L 254.929688 320.777344 L 254.929688 327.546875 L 229.492188 327.546875 Z M 193.726562 297.625 L 203.480469 297.625 L 210.285156 319.164062 L 216.992188 297.625 L 226.460938 297.625 L 215.25 327.546875 L 205.136719 327.546875 Z M 180.644531 297.625 L 190.007812 297.625 L 190.007812 327.546875 L 180.644531 327.546875 Z M 152.128906 297.625 L 161.449219 297.625 L 161.449219 320.191406 L 176.046875 320.191406 L 176.046875 327.546875 L 152.128906 327.546875 Z M 121.664062 297.625 L 146.636719 297.625 L 146.636719 304.019531 L 131.027344 304.019531 L 131.027344 308.785156 L 145.496094 308.785156 L 145.496094 314.886719 L 131.027344 314.886719 L 131.027344 320.777344 L 147.101562 320.777344 L 147.101562 327.546875 L 121.664062 327.546875 Z M 98.300781 304.394531 L 98.300781 320.738281 L 100.59375 320.738281 C 102.546875 320.738281 103.941406 320.519531 104.769531 320.097656 C 105.59375 319.664062 106.238281 318.917969 106.710938 317.851562 C 107.179688 316.78125 107.414062 315.054688 107.414062 312.65625 C 107.414062 309.488281 106.894531 307.320312 105.84375 306.152344 C 104.796875 304.980469 103.0625 304.394531 100.636719 304.394531 Z M 98.300781 304.394531 " clip-rule="evenodd"/></clipPath><linearGradient x1="168189.932686" gradientTransform="matrix(0.00195273, 0, 0, 0.00193454, -7.620266, 119.104977)" y1="97760.828652" x2="31798.024327" gradientUnits="userSpaceOnUse" y2="98160.796482" id="ff1490f153"><stop stop-opacity="1" stop-color="rgb(93.299866%, 50.999451%, 10.598755%)" offset="0"/><stop stop-opacity="1" stop-color="rgb(93.299866%, 50.999451%, 10.598755%)" offset="0.000333187"/><stop stop-opacity="1" stop-color="rgb(93.299866%, 50.999451%, 10.598755%)" offset="0.03125"/><stop stop-opacity="1" stop-color="rgb(93.267822%, 50.836182%, 10.626221%)" offset="0.046875"/><stop stop-opacity="1" stop-color="rgb(93.205261%, 50.506592%, 10.684204%)" offset="0.0546875"/><stop stop-opacity="1" stop-color="rgb(93.141174%, 50.17395%, 10.742188%)" offset="0.0625"/><stop stop-opacity="1" stop-color="rgb(93.077087%, 49.841309%, 10.798645%)" offset="0.0703125"/><stop stop-opacity="1" stop-color="rgb(93.013%, 49.507141%, 10.856628%)" offset="0.078125"/><stop stop-opacity="1" stop-color="rgb(92.948914%, 49.1745%, 10.914612%)" offset="0.0859375"/><stop stop-opacity="1" stop-color="rgb(92.884827%, 48.841858%, 10.971069%)" offset="0.09375"/><stop stop-opacity="1" stop-color="rgb(92.82074%, 48.50769%, 11.029053%)" offset="0.101562"/><stop stop-opacity="1" stop-color="rgb(92.758179%, 48.175049%, 11.087036%)" offset="0.109375"/><stop stop-opacity="1" stop-color="rgb(92.694092%, 47.842407%, 11.143494%)" offset="0.117188"/><stop stop-opacity="1" stop-color="rgb(92.630005%, 47.50824%, 11.201477%)" offset="0.125"/><stop stop-opacity="1" stop-color="rgb(92.565918%, 47.175598%, 11.25946%)" offset="0.132813"/><stop stop-opacity="1" stop-color="rgb(92.501831%, 46.842957%, 11.315918%)" offset="0.140625"/><stop stop-opacity="1" stop-color="rgb(92.437744%, 46.508789%, 11.373901%)" offset="0.148438"/><stop stop-opacity="1" stop-color="rgb(92.373657%, 46.176147%, 11.431885%)" offset="0.15625"/><stop stop-opacity="1" stop-color="rgb(92.311096%, 45.843506%, 11.488342%)" offset="0.164062"/><stop stop-opacity="1" stop-color="rgb(92.247009%, 45.510864%, 11.546326%)" offset="0.171875"/><stop stop-opacity="1" stop-color="rgb(92.182922%, 45.176697%, 11.604309%)" offset="0.179688"/><stop stop-opacity="1" stop-color="rgb(92.118835%, 44.844055%, 11.660767%)" offset="0.1875"/><stop stop-opacity="1" stop-color="rgb(92.054749%, 44.511414%, 11.71875%)" offset="0.195313"/><stop stop-opacity="1" stop-color="rgb(91.990662%, 44.177246%, 11.776733%)" offset="0.203125"/><stop stop-opacity="1" stop-color="rgb(91.926575%, 43.844604%, 11.833191%)" offset="0.210938"/><stop stop-opacity="1" stop-color="rgb(91.862488%, 43.511963%, 11.891174%)" offset="0.21875"/><stop stop-opacity="1" stop-color="rgb(91.799927%, 43.177795%, 11.949158%)" offset="0.226562"/><stop stop-opacity="1" stop-color="rgb(91.73584%, 42.845154%, 12.005615%)" offset="0.234375"/><stop stop-opacity="1" stop-color="rgb(91.671753%, 42.512512%, 12.063599%)" offset="0.242188"/><stop stop-opacity="1" stop-color="rgb(91.607666%, 42.178345%, 12.121582%)" offset="0.25"/><stop stop-opacity="1" stop-color="rgb(91.543579%, 41.845703%, 12.179565%)" offset="0.257812"/><stop stop-opacity="1" stop-color="rgb(91.479492%, 41.513062%, 12.236023%)" offset="0.265625"/><stop stop-opacity="1" stop-color="rgb(91.415405%, 41.178894%, 12.294006%)" offset="0.273438"/><stop stop-opacity="1" stop-color="rgb(91.351318%, 40.846252%, 12.35199%)" offset="0.28125"/><stop stop-opacity="1" stop-color="rgb(91.288757%, 40.513611%, 12.408447%)" offset="0.289063"/><stop stop-opacity="1" stop-color="rgb(91.22467%, 40.180969%, 12.466431%)" offset="0.296875"/><stop stop-opacity="1" stop-color="rgb(91.160583%, 39.846802%, 12.524414%)" offset="0.304688"/><stop stop-opacity="1" stop-color="rgb(91.096497%, 39.51416%, 12.580872%)" offset="0.3125"/><stop stop-opacity="1" stop-color="rgb(91.03241%, 39.181519%, 12.638855%)" offset="0.320312"/><stop stop-opacity="1" stop-color="rgb(90.968323%, 38.847351%, 12.696838%)" offset="0.328125"/><stop stop-opacity="1" stop-color="rgb(90.904236%, 38.514709%, 12.753296%)" offset="0.335938"/><stop stop-opacity="1" stop-color="rgb(90.841675%, 38.182068%, 12.811279%)" offset="0.34375"/><stop stop-opacity="1" stop-color="rgb(90.777588%, 37.8479%, 12.869263%)" offset="0.351563"/><stop stop-opacity="1" stop-color="rgb(90.713501%, 37.515259%, 12.92572%)" offset="0.359375"/><stop stop-opacity="1" stop-color="rgb(90.649414%, 37.182617%, 12.983704%)" offset="0.367188"/><stop stop-opacity="1" stop-color="rgb(90.585327%, 36.84845%, 13.041687%)" offset="0.375"/><stop stop-opacity="1" stop-color="rgb(90.52124%, 36.515808%, 13.098145%)" offset="0.382813"/><stop stop-opacity="1" stop-color="rgb(90.457153%, 36.183167%, 13.156128%)" offset="0.390625"/><stop stop-opacity="1" stop-color="rgb(90.393066%, 35.848999%, 13.214111%)" offset="0.398438"/><stop stop-opacity="1" stop-color="rgb(90.330505%, 35.516357%, 13.270569%)" offset="0.40625"/><stop stop-opacity="1" stop-color="rgb(90.266418%, 35.183716%, 13.328552%)" offset="0.414063"/><stop stop-opacity="1" stop-color="rgb(90.202332%, 34.851074%, 13.386536%)" offset="0.421875"/><stop stop-opacity="1" stop-color="rgb(90.138245%, 34.516907%, 13.444519%)" offset="0.429688"/><stop stop-opacity="1" stop-color="rgb(90.074158%, 34.184265%, 13.500977%)" offset="0.4375"/><stop stop-opacity="1" stop-color="rgb(90.010071%, 33.851624%, 13.55896%)" offset="0.445312"/><stop stop-opacity="1" stop-color="rgb(89.945984%, 33.517456%, 13.616943%)" offset="0.453125"/><stop stop-opacity="1" stop-color="rgb(89.883423%, 33.184814%, 13.673401%)" offset="0.460938"/><stop stop-opacity="1" stop-color="rgb(89.819336%, 32.852173%, 13.731384%)" offset="0.46875"/><stop stop-opacity="1" stop-color="rgb(89.755249%, 32.518005%, 13.789368%)" offset="0.476563"/><stop stop-opacity="1" stop-color="rgb(89.691162%, 32.185364%, 13.845825%)" offset="0.484375"/><stop stop-opacity="1" stop-color="rgb(89.627075%, 31.852722%, 13.903809%)" offset="0.492188"/><stop stop-opacity="1" stop-color="rgb(89.562988%, 31.518555%, 13.961792%)" offset="0.5"/><stop stop-opacity="1" stop-color="rgb(89.498901%, 31.185913%, 14.01825%)" offset="0.507812"/><stop stop-opacity="1" stop-color="rgb(89.434814%, 30.853271%, 14.076233%)" offset="0.515625"/><stop stop-opacity="1" stop-color="rgb(89.372253%, 30.52063%, 14.134216%)" offset="0.523438"/><stop stop-opacity="1" stop-color="rgb(89.308167%, 30.186462%, 14.190674%)" offset="0.53125"/><stop stop-opacity="1" stop-color="rgb(89.24408%, 29.853821%, 14.248657%)" offset="0.539062"/><stop stop-opacity="1" stop-color="rgb(89.179993%, 29.521179%, 14.306641%)" offset="0.546875"/><stop stop-opacity="1" stop-color="rgb(89.115906%, 29.187012%, 14.363098%)" offset="0.554687"/><stop stop-opacity="1" stop-color="rgb(89.051819%, 28.85437%, 14.421082%)" offset="0.5625"/><stop stop-opacity="1" stop-color="rgb(88.987732%, 28.521729%, 14.479065%)" offset="0.570312"/><stop stop-opacity="1" stop-color="rgb(88.925171%, 28.187561%, 14.535522%)" offset="0.578125"/><stop stop-opacity="1" stop-color="rgb(88.861084%, 27.854919%, 14.593506%)" offset="0.585938"/><stop stop-opacity="1" stop-color="rgb(88.796997%, 27.522278%, 14.651489%)" offset="0.59375"/><stop stop-opacity="1" stop-color="rgb(88.73291%, 27.18811%, 14.709473%)" offset="0.601562"/><stop stop-opacity="1" stop-color="rgb(88.668823%, 26.855469%, 14.76593%)" offset="0.609375"/><stop stop-opacity="1" stop-color="rgb(88.604736%, 26.522827%, 14.823914%)" offset="0.617188"/><stop stop-opacity="1" stop-color="rgb(88.540649%, 26.18866%, 14.881897%)" offset="0.625"/><stop stop-opacity="1" stop-color="rgb(88.476562%, 25.856018%, 14.938354%)" offset="0.632812"/><stop stop-opacity="1" stop-color="rgb(88.414001%, 25.523376%, 14.996338%)" offset="0.640625"/><stop stop-opacity="1" stop-color="rgb(88.349915%, 25.190735%, 15.054321%)" offset="0.648438"/><stop stop-opacity="1" stop-color="rgb(88.285828%, 24.856567%, 15.110779%)" offset="0.65625"/><stop stop-opacity="1" stop-color="rgb(88.221741%, 24.523926%, 15.168762%)" offset="0.664062"/><stop stop-opacity="1" stop-color="rgb(88.157654%, 24.191284%, 15.226746%)" offset="0.671875"/><stop stop-opacity="1" stop-color="rgb(88.093567%, 23.857117%, 15.283203%)" offset="0.679688"/><stop stop-opacity="1" stop-color="rgb(88.02948%, 23.524475%, 15.341187%)" offset="0.6875"/><stop stop-opacity="1" stop-color="rgb(87.966919%, 23.191833%, 15.39917%)" offset="0.695313"/><stop stop-opacity="1" stop-color="rgb(87.902832%, 22.857666%, 15.455627%)" offset="0.703125"/><stop stop-opacity="1" stop-color="rgb(87.838745%, 22.525024%, 15.513611%)" offset="0.710938"/><stop stop-opacity="1" stop-color="rgb(87.774658%, 22.192383%, 15.571594%)" offset="0.71875"/><stop stop-opacity="1" stop-color="rgb(87.710571%, 21.858215%, 15.628052%)" offset="0.726562"/><stop stop-opacity="1" stop-color="rgb(87.646484%, 21.525574%, 15.686035%)" offset="0.734375"/><stop stop-opacity="1" stop-color="rgb(87.582397%, 21.192932%, 15.744019%)" offset="0.742188"/><stop stop-opacity="1" stop-color="rgb(87.518311%, 20.858765%, 15.800476%)" offset="0.75"/><stop stop-opacity="1" stop-color="rgb(87.45575%, 20.526123%, 15.858459%)" offset="0.757812"/><stop stop-opacity="1" stop-color="rgb(87.391663%, 20.193481%, 15.916443%)" offset="0.765625"/><stop stop-opacity="1" stop-color="rgb(87.327576%, 19.86084%, 15.9729%)" offset="0.773438"/><stop stop-opacity="1" stop-color="rgb(87.263489%, 19.526672%, 16.030884%)" offset="0.78125"/><stop stop-opacity="1" stop-color="rgb(87.199402%, 19.194031%, 16.088867%)" offset="0.789062"/><stop stop-opacity="1" stop-color="rgb(87.135315%, 18.861389%, 16.146851%)" offset="0.796875"/><stop stop-opacity="1" stop-color="rgb(87.071228%, 18.527222%, 16.203308%)" offset="0.804687"/><stop stop-opacity="1" stop-color="rgb(87.007141%, 18.19458%, 16.261292%)" offset="0.8125"/><stop stop-opacity="1" stop-color="rgb(86.94458%, 17.861938%, 16.319275%)" offset="0.820312"/><stop stop-opacity="1" stop-color="rgb(86.880493%, 17.527771%, 16.375732%)" offset="0.828125"/><stop stop-opacity="1" stop-color="rgb(86.816406%, 17.195129%, 16.433716%)" offset="0.835938"/><stop stop-opacity="1" stop-color="rgb(86.752319%, 16.862488%, 16.491699%)" offset="0.84375"/><stop stop-opacity="1" stop-color="rgb(86.688232%, 16.52832%, 16.548157%)" offset="0.851562"/><stop stop-opacity="1" stop-color="rgb(86.624146%, 16.195679%, 16.60614%)" offset="0.859375"/><stop stop-opacity="1" stop-color="rgb(86.560059%, 15.863037%, 16.664124%)" offset="0.867188"/><stop stop-opacity="1" stop-color="rgb(86.497498%, 15.530396%, 16.720581%)" offset="0.875"/><stop stop-opacity="1" stop-color="rgb(86.433411%, 15.196228%, 16.778564%)" offset="0.882812"/><stop stop-opacity="1" stop-color="rgb(86.369324%, 14.863586%, 16.836548%)" offset="0.890625"/><stop stop-opacity="1" stop-color="rgb(86.317444%, 14.598083%, 16.882324%)" offset="0.90625"/><stop stop-opacity="1" stop-color="rgb(86.299133%, 14.498901%, 16.899109%)" offset="0.9375"/><stop stop-opacity="1" stop-color="rgb(86.299133%, 14.498901%, 16.899109%)" offset="0.999667"/><stop stop-opacity="1" stop-color="rgb(86.299133%, 14.498901%, 16.899109%)" offset="1"/></linearGradient></defs><g clip-path="url(#487824d39d)"><path fill="#f68712" d="M 349.835938 223.371094 C 348.816406 221.484375 347.628906 219.703125 346.28125 218.03125 C 344.933594 216.359375 343.441406 214.824219 341.808594 213.425781 C 340.179688 212.027344 338.433594 210.789062 336.574219 209.710938 C 334.71875 208.636719 332.777344 207.734375 330.753906 207.015625 C 327.628906 207.945312 324.460938 208.695312 321.25 209.257812 C 314.128906 210.632812 307.410156 211.925781 301.027344 218.230469 C 294.632812 224.546875 292.425781 230.382812 290.089844 236.5625 C 288.652344 240.367188 287.167969 244.300781 284.667969 248.226562 C 285.023438 250.179688 285.59375 252.066406 286.375 253.890625 C 287 255.394531 287.726562 256.847656 288.550781 258.25 C 289.378906 259.648438 290.296875 260.988281 291.3125 262.261719 C 292.324219 263.539062 293.421875 264.734375 294.601562 265.859375 C 295.777344 266.980469 297.03125 268.015625 298.351562 268.960938 C 299.675781 269.910156 301.058594 270.761719 302.5 271.519531 C 303.941406 272.273438 305.429688 272.925781 306.960938 273.476562 C 308.496094 274.023438 310.058594 274.464844 311.652344 274.796875 C 313.246094 275.128906 314.851562 275.347656 316.476562 275.457031 C 318.101562 275.5625 319.726562 275.558594 321.347656 275.441406 C 322.972656 275.324219 324.578125 275.09375 326.171875 274.753906 C 327.761719 274.414062 329.324219 273.960938 330.851562 273.40625 C 332.382812 272.847656 333.863281 272.183594 335.300781 271.421875 C 336.738281 270.65625 338.117188 269.796875 339.433594 268.839844 C 340.75 267.882812 341.996094 266.84375 343.167969 265.714844 C 344.34375 264.585938 345.429688 263.378906 346.4375 262.097656 C 347.441406 260.820312 348.351562 259.476562 349.171875 258.066406 C 349.578125 257.382812 349.960938 256.683594 350.320312 255.96875 C 352.355469 251.9375 353.558594 247.671875 353.941406 243.175781 C 354.023438 242.183594 354.09375 241.1875 354.09375 240.171875 C 354.097656 237.238281 353.738281 234.347656 353.019531 231.503906 C 352.296875 228.660156 351.238281 225.949219 349.835938 223.371094 Z M 337.570312 245.121094 C 337.355469 245.894531 337.089844 246.648438 336.777344 247.390625 C 336.464844 248.128906 336.105469 248.847656 335.703125 249.542969 C 335.300781 250.238281 334.855469 250.90625 334.371094 251.546875 C 333.882812 252.1875 333.359375 252.792969 332.796875 253.367188 C 332.230469 253.941406 331.636719 254.476562 331.003906 254.976562 C 330.375 255.472656 329.714844 255.929688 329.027344 256.347656 C 328.339844 256.761719 327.628906 257.132812 326.894531 257.460938 C 326.160156 257.789062 325.410156 258.066406 324.640625 258.300781 C 323.871094 258.53125 323.089844 258.714844 322.296875 258.847656 C 321.503906 258.984375 320.707031 259.066406 319.902344 259.101562 C 319.101562 259.132812 318.300781 259.117188 317.5 259.050781 C 316.695312 258.984375 315.902344 258.867188 315.117188 258.699219 C 314.332031 258.535156 313.558594 258.320312 312.800781 258.054688 C 312.039062 257.792969 311.300781 257.480469 310.578125 257.125 C 309.859375 256.769531 309.164062 256.367188 308.496094 255.925781 C 307.824219 255.480469 307.183594 254.996094 306.574219 254.472656 C 305.964844 253.949219 305.394531 253.386719 304.855469 252.792969 C 304.316406 252.195312 303.816406 251.566406 303.355469 250.910156 C 302.894531 250.25 302.480469 249.5625 302.105469 248.851562 C 301.730469 248.140625 301.402344 247.410156 301.121094 246.65625 C 300.839844 245.902344 300.605469 245.136719 300.421875 244.355469 C 300.234375 243.574219 300.097656 242.78125 300.011719 241.984375 C 299.925781 241.183594 299.890625 240.382812 299.90625 239.578125 C 299.917969 238.777344 299.984375 237.976562 300.097656 237.179688 C 300.214844 236.386719 300.378906 235.601562 300.59375 234.824219 C 300.804688 234.050781 301.066406 233.292969 301.375 232.550781 C 301.683594 231.808594 302.039062 231.089844 302.4375 230.390625 C 302.835938 229.691406 303.277344 229.023438 303.761719 228.382812 C 304.246094 227.738281 304.765625 227.128906 305.328125 226.554688 C 305.886719 225.976562 306.480469 225.4375 307.109375 224.9375 C 307.734375 224.433594 308.390625 223.972656 309.078125 223.554688 C 309.761719 223.132812 310.472656 222.757812 311.203125 222.429688 C 311.9375 222.097656 312.6875 221.816406 313.457031 221.578125 C 314.222656 221.34375 315.003906 221.15625 315.796875 221.015625 C 316.585938 220.878906 317.386719 220.792969 318.1875 220.753906 C 318.992188 220.714844 319.792969 220.726562 320.59375 220.789062 C 321.394531 220.851562 322.1875 220.964844 322.976562 221.128906 C 323.761719 221.289062 324.539062 221.5 325.296875 221.761719 C 326.058594 222.019531 326.800781 222.328125 327.523438 222.679688 C 328.242188 223.035156 328.941406 223.429688 329.613281 223.871094 C 330.285156 224.3125 330.925781 224.792969 331.539062 225.3125 C 332.152344 225.832031 332.726562 226.390625 333.269531 226.984375 C 333.8125 227.578125 334.316406 228.203125 334.777344 228.859375 C 335.242188 229.515625 335.660156 230.199219 336.039062 230.910156 C 336.417969 231.617188 336.75 232.347656 337.035156 233.101562 C 337.320312 233.851562 337.558594 234.617188 337.746094 235.398438 C 337.9375 236.179688 338.078125 236.96875 338.167969 237.769531 C 338.257812 238.566406 338.296875 239.367188 338.285156 240.171875 C 338.261719 241.851562 338.023438 243.5 337.570312 245.121094 Z M 303.28125 212.867188 C 305.25 211.496094 307.351562 210.378906 309.589844 209.511719 C 310.296875 209.234375 311.007812 208.984375 311.71875 208.757812 C 314.5625 207.898438 317.449219 207.214844 320.375 206.707031 C 321.105469 206.566406 321.835938 206.425781 322.570312 206.28125 C 323.601562 206.078125 324.636719 205.855469 325.675781 205.617188 C 326.117188 205.515625 326.558594 205.421875 327 205.308594 C 329.304688 204.753906 331.550781 204.011719 333.738281 203.085938 C 335.164062 202.480469 336.539062 201.777344 337.871094 200.976562 C 338.4375 200.632812 338.949219 200.296875 339.402344 199.976562 C 340.605469 199.1875 341.671875 198.242188 342.605469 197.144531 C 339.675781 194.96875 336.511719 193.214844 333.113281 191.878906 C 332.832031 191.765625 332.554688 191.644531 332.269531 191.539062 C 330.753906 190.957031 329.210938 190.457031 327.636719 190.039062 C 327.335938 189.960938 327.03125 189.890625 326.730469 189.816406 C 325.074219 189.402344 323.40625 189.085938 321.714844 188.859375 C 319.980469 188.652344 318.234375 188.539062 316.488281 188.527344 C 316.152344 188.519531 315.820312 188.507812 315.484375 188.511719 C 314.109375 188.523438 312.730469 188.578125 311.335938 188.714844 C 305.714844 189.28125 300.382812 190.832031 295.339844 193.371094 L 298.234375 189.171875 L 299.65625 187.109375 C 300.335938 186.125 300.882812 185.078125 301.304688 183.960938 C 301.726562 182.84375 302.007812 181.695312 302.152344 180.511719 C 302.292969 179.328125 302.292969 178.144531 302.144531 176.957031 C 302 175.773438 301.714844 174.625 301.289062 173.511719 L 282.390625 123.960938 L 294.039062 125.8125 C 294.335938 125.859375 294.632812 125.875 294.929688 125.855469 C 295.230469 125.839844 295.523438 125.789062 295.808594 125.707031 C 296.097656 125.628906 296.375 125.515625 296.636719 125.375 C 296.902344 125.234375 297.148438 125.066406 297.375 124.871094 C 297.601562 124.679688 297.804688 124.460938 297.988281 124.222656 C 298.167969 123.984375 298.320312 123.730469 298.445312 123.457031 C 298.570312 123.1875 298.664062 122.90625 298.730469 122.613281 C 298.792969 122.320312 298.824219 122.023438 298.824219 121.726562 L 298.824219 99.972656 C 298.824219 99.675781 298.792969 99.378906 298.730469 99.085938 C 298.664062 98.792969 298.570312 98.511719 298.445312 98.242188 C 298.320312 97.96875 298.167969 97.714844 297.988281 97.476562 C 297.804688 97.238281 297.601562 97.019531 297.375 96.828125 C 297.148438 96.632812 296.902344 96.464844 296.636719 96.324219 C 296.375 96.183594 296.097656 96.070312 295.808594 95.992188 C 295.523438 95.910156 295.230469 95.859375 294.929688 95.84375 C 294.632812 95.824219 294.335938 95.839844 294.039062 95.886719 L 267.332031 100.136719 C 266.761719 100.226562 266.226562 100.414062 265.722656 100.695312 C 265.21875 100.976562 264.777344 101.339844 264.402344 101.777344 C 264.027344 102.21875 263.742188 102.707031 263.542969 103.25 C 263.34375 103.792969 263.242188 104.351562 263.242188 104.929688 L 263.242188 108.941406 C 262.835938 108.855469 262.421875 108.800781 262.007812 108.78125 L 240.71875 108.507812 C 240 108.480469 239.320312 108.308594 238.675781 107.988281 C 238.03125 107.667969 237.480469 107.230469 237.027344 106.671875 L 217.757812 82.933594 C 207.097656 69.863281 188.902344 73.933594 185.476562 90.445312 L 175.460938 128.101562 C 175.300781 128.867188 175.175781 129.640625 175.085938 130.417969 C 175 131.195312 174.945312 131.972656 174.929688 132.753906 C 174.914062 133.535156 174.933594 134.316406 174.992188 135.097656 C 175.046875 135.878906 175.140625 136.65625 175.265625 137.425781 C 175.394531 138.199219 175.558594 138.960938 175.757812 139.71875 C 175.957031 140.472656 176.191406 141.21875 176.460938 141.953125 C 176.730469 142.6875 177.03125 143.410156 177.367188 144.117188 C 177.699219 144.824219 178.066406 145.511719 178.46875 146.1875 C 178.867188 146.859375 179.296875 147.511719 179.757812 148.144531 C 180.214844 148.777344 180.703125 149.386719 181.21875 149.972656 C 181.738281 150.5625 182.277344 151.125 182.847656 151.660156 C 183.417969 152.199219 184.007812 152.707031 184.625 153.191406 C 185.242188 153.671875 185.878906 154.125 186.535156 154.546875 C 187.191406 154.972656 187.867188 155.363281 188.5625 155.722656 C 189.257812 156.082031 189.96875 156.410156 190.691406 156.707031 C 191.417969 157 192.152344 157.261719 192.902344 157.488281 L 131.027344 157.488281 C 130.722656 157.488281 130.429688 157.546875 130.152344 157.660156 C 129.871094 157.777344 129.625 157.945312 129.410156 158.160156 C 129.195312 158.371094 129.027344 158.621094 128.914062 158.902344 C 128.796875 159.183594 128.738281 159.472656 128.738281 159.777344 L 128.738281 168.386719 C 128.738281 168.691406 128.796875 168.980469 128.914062 169.261719 C 129.03125 169.542969 129.195312 169.789062 129.410156 170.003906 C 129.625 170.21875 129.871094 170.382812 130.152344 170.5 C 130.433594 170.617188 130.722656 170.675781 131.027344 170.675781 L 216.796875 170.675781 C 217.097656 170.675781 217.390625 170.617188 217.671875 170.5 C 217.953125 170.386719 218.199219 170.21875 218.414062 170.003906 C 218.628906 169.789062 218.792969 169.542969 218.910156 169.261719 C 219.027344 168.984375 219.085938 168.691406 219.085938 168.386719 L 219.085938 161.570312 L 230.777344 163.253906 L 221.523438 204.421875 C 221.417969 205.03125 221.367188 205.648438 221.378906 206.269531 C 221.394531 206.890625 221.464844 207.503906 221.597656 208.109375 C 221.726562 208.714844 221.917969 209.304688 222.164062 209.875 C 222.410156 210.445312 222.707031 210.984375 223.058594 211.496094 C 223.410156 212.007812 223.808594 212.480469 224.253906 212.914062 C 224.699219 213.347656 225.179688 213.734375 225.699219 214.074219 C 226.21875 214.414062 226.765625 214.703125 227.339844 214.933594 C 227.914062 215.167969 228.507812 215.34375 229.117188 215.460938 C 229.726562 215.578125 230.339844 215.636719 230.960938 215.636719 C 231.582031 215.632812 232.199219 215.570312 232.804688 215.449219 C 233.414062 215.328125 234.003906 215.148438 234.578125 214.910156 C 235.152344 214.671875 235.699219 214.382812 236.214844 214.039062 C 236.730469 213.695312 237.210938 213.304688 237.652344 212.867188 C 238.09375 212.433594 238.488281 211.957031 238.835938 211.441406 C 239.183594 210.929688 239.480469 210.386719 239.722656 209.816406 C 239.964844 209.246094 240.148438 208.65625 240.277344 208.046875 L 251.710938 162.617188 C 251.828125 162.070312 251.917969 161.519531 251.980469 160.96875 C 252.042969 160.414062 252.074219 159.859375 252.082031 159.300781 C 252.089844 158.742188 252.070312 158.1875 252.019531 157.632812 C 251.972656 157.074219 251.898438 156.523438 251.792969 155.976562 C 251.691406 155.429688 251.5625 154.886719 251.40625 154.351562 C 251.25 153.816406 251.066406 153.289062 250.855469 152.773438 C 250.648438 152.257812 250.414062 151.75 250.15625 151.257812 C 249.898438 150.761719 249.617188 150.285156 249.308594 149.816406 C 249.003906 149.351562 248.675781 148.902344 248.324219 148.46875 C 247.972656 148.035156 247.601562 147.621094 247.210938 147.222656 C 246.820312 146.828125 246.410156 146.449219 245.980469 146.09375 C 245.550781 145.738281 245.105469 145.40625 244.644531 145.09375 C 244.183594 144.78125 243.707031 144.492188 243.214844 144.226562 C 242.726562 143.960938 242.222656 143.722656 241.707031 143.507812 C 241.195312 143.292969 240.671875 143.101562 240.136719 142.9375 C 239.605469 142.777344 239.066406 142.640625 238.519531 142.53125 C 228.890625 140.59375 216.925781 138.261719 210.703125 137.054688 C 210.429688 137 210.164062 136.917969 209.90625 136.8125 C 209.648438 136.707031 209.402344 136.574219 209.171875 136.417969 C 208.941406 136.261719 208.726562 136.082031 208.53125 135.882812 C 208.335938 135.683594 208.160156 135.46875 208.007812 135.234375 C 207.855469 135 207.730469 134.753906 207.625 134.492188 C 207.523438 134.234375 207.449219 133.964844 207.398438 133.691406 C 207.351562 133.414062 207.332031 133.136719 207.335938 132.859375 C 207.34375 132.578125 207.378906 132.304688 207.441406 132.03125 L 213.25 106.210938 L 224.128906 119.097656 C 225.039062 120.214844 226.066406 121.21875 227.210938 122.097656 C 228.351562 122.980469 229.578125 123.71875 230.894531 124.316406 C 232.207031 124.914062 233.574219 125.351562 234.988281 125.632812 C 236.402344 125.910156 237.832031 126.023438 239.273438 125.972656 L 262.003906 124.730469 C 263.179688 124.6875 264.289062 124.398438 265.335938 123.859375 L 273.484375 169.214844 C 274.0625 172.421875 274.128906 175.640625 273.6875 178.867188 C 273.246094 182.097656 272.316406 185.179688 270.898438 188.113281 L 259.511719 211.703125 C 258.886719 213.003906 258.089844 214.1875 257.128906 215.265625 C 256.167969 216.339844 255.074219 217.261719 253.851562 218.027344 C 252.628906 218.792969 251.328125 219.378906 249.941406 219.777344 C 248.554688 220.175781 247.140625 220.375 245.695312 220.375 L 224.109375 220.375 C 223.566406 220.375 223.023438 220.34375 222.484375 220.285156 C 221.941406 220.226562 221.40625 220.136719 220.875 220.015625 C 220.34375 219.898438 219.820312 219.75 219.304688 219.574219 C 218.789062 219.394531 218.289062 219.191406 217.796875 218.957031 C 217.304688 218.726562 216.824219 218.464844 216.363281 218.179688 C 215.898438 217.894531 215.453125 217.585938 215.023438 217.25 C 214.59375 216.917969 214.183594 216.558594 213.792969 216.179688 C 213.402344 215.796875 213.035156 215.398438 212.691406 214.976562 C 212.34375 214.558594 212.023438 214.117188 211.726562 213.664062 C 211.429688 213.207031 211.160156 212.734375 210.914062 212.25 C 210.667969 211.761719 210.449219 211.265625 210.261719 210.753906 C 210.070312 210.246094 209.910156 209.726562 209.777344 209.199219 C 209.644531 208.671875 209.542969 208.136719 209.46875 207.597656 C 209.394531 207.058594 209.351562 206.515625 209.335938 205.972656 C 209.324219 205.429688 209.339844 204.882812 209.386719 204.34375 C 209.429688 203.800781 209.507812 203.261719 209.613281 202.726562 L 215.296875 174.007812 L 133.566406 174.007812 C 132.417969 174.003906 131.359375 174.304688 130.382812 174.910156 C 129.617188 175.386719 128.585938 176.050781 127.355469 176.894531 C 126.675781 177.367188 125.921875 177.605469 125.09375 177.609375 L 90.15625 177.609375 C 89.878906 177.609375 89.605469 177.636719 89.332031 177.691406 C 89.0625 177.746094 88.796875 177.824219 88.542969 177.933594 C 88.285156 178.039062 88.042969 178.167969 87.8125 178.320312 C 87.582031 178.476562 87.371094 178.648438 87.171875 178.847656 C 86.976562 179.042969 86.804688 179.253906 86.648438 179.484375 C 86.496094 179.714844 86.367188 179.957031 86.257812 180.214844 C 86.152344 180.46875 86.074219 180.734375 86.019531 181.003906 C 85.964844 181.277344 85.9375 181.550781 85.9375 181.828125 C 85.9375 182.105469 85.964844 182.378906 86.019531 182.648438 C 86.074219 182.921875 86.152344 183.1875 86.257812 183.441406 C 86.367188 183.695312 86.496094 183.941406 86.648438 184.171875 C 86.804688 184.402344 86.976562 184.613281 87.171875 184.808594 C 87.371094 185.003906 87.582031 185.179688 87.8125 185.332031 C 88.042969 185.488281 88.285156 185.617188 88.542969 185.722656 C 88.796875 185.828125 89.0625 185.910156 89.332031 185.964844 C 89.605469 186.019531 89.878906 186.042969 90.15625 186.042969 L 130.058594 186.042969 C 130.335938 186.042969 130.609375 186.070312 130.882812 186.125 C 131.152344 186.179688 131.417969 186.257812 131.671875 186.367188 C 131.929688 186.472656 132.171875 186.601562 132.402344 186.753906 C 132.632812 186.910156 132.84375 187.082031 133.039062 187.28125 C 133.234375 187.476562 133.410156 187.6875 133.566406 187.917969 C 133.71875 188.148438 133.847656 188.390625 133.953125 188.648438 C 134.058594 188.902344 134.140625 189.167969 134.195312 189.4375 C 134.25 189.710938 134.273438 189.984375 134.273438 190.261719 C 134.273438 190.539062 134.25 190.8125 134.195312 191.085938 C 134.140625 191.355469 134.058594 191.621094 133.953125 191.875 C 133.847656 192.132812 133.71875 192.375 133.566406 192.605469 C 133.410156 192.835938 133.234375 193.046875 133.039062 193.242188 C 132.84375 193.4375 132.632812 193.613281 132.402344 193.769531 C 132.171875 193.921875 131.929688 194.050781 131.671875 194.15625 C 131.417969 194.261719 131.152344 194.34375 130.882812 194.398438 C 130.609375 194.453125 130.335938 194.480469 130.058594 194.480469 L 29.472656 194.480469 C 29.195312 194.480469 28.921875 194.503906 28.648438 194.558594 C 28.378906 194.613281 28.113281 194.695312 27.859375 194.800781 C 27.601562 194.90625 27.359375 195.035156 27.128906 195.1875 C 26.898438 195.34375 26.6875 195.519531 26.492188 195.714844 C 26.296875 195.910156 26.121094 196.121094 25.964844 196.351562 C 25.8125 196.582031 25.683594 196.824219 25.578125 197.082031 C 25.472656 197.335938 25.390625 197.601562 25.335938 197.871094 C 25.28125 198.144531 25.257812 198.417969 25.257812 198.695312 C 25.257812 198.972656 25.28125 199.246094 25.335938 199.519531 C 25.390625 199.789062 25.472656 200.054688 25.578125 200.308594 C 25.683594 200.566406 25.8125 200.808594 25.964844 201.039062 C 26.121094 201.269531 26.296875 201.480469 26.492188 201.675781 C 26.6875 201.875 26.898438 202.046875 27.128906 202.203125 C 27.359375 202.355469 27.601562 202.484375 27.859375 202.589844 C 28.113281 202.699219 28.378906 202.777344 28.648438 202.832031 C 28.921875 202.886719 29.195312 202.914062 29.472656 202.914062 L 110.023438 202.914062 C 110.300781 202.910156 110.578125 202.933594 110.851562 202.984375 C 111.125 203.039062 111.390625 203.117188 111.652344 203.222656 C 111.910156 203.324219 112.152344 203.453125 112.386719 203.609375 C 112.621094 203.761719 112.835938 203.9375 113.03125 204.132812 C 113.230469 204.328125 113.40625 204.542969 113.5625 204.773438 C 113.71875 205.003906 113.851562 205.25 113.957031 205.503906 C 114.066406 205.761719 114.144531 206.027344 114.199219 206.300781 C 114.253906 206.574219 114.28125 206.851562 114.28125 207.128906 C 114.28125 207.40625 114.253906 207.683594 114.199219 207.957031 C 114.144531 208.230469 114.066406 208.496094 113.957031 208.753906 C 113.851562 209.011719 113.71875 209.253906 113.5625 209.484375 C 113.40625 209.714844 113.230469 209.929688 113.03125 210.125 C 112.835938 210.320312 112.621094 210.496094 112.386719 210.648438 C 112.152344 210.804688 111.910156 210.933594 111.652344 211.035156 C 111.390625 211.140625 111.125 211.21875 110.851562 211.273438 C 110.578125 211.324219 110.300781 211.347656 110.023438 211.347656 L 58.371094 211.347656 C 58.09375 211.347656 57.820312 211.371094 57.546875 211.425781 C 57.277344 211.480469 57.011719 211.5625 56.757812 211.667969 C 56.5 211.773438 56.257812 211.902344 56.027344 212.054688 C 55.796875 212.210938 55.585938 212.386719 55.390625 212.582031 C 55.191406 212.777344 55.019531 212.988281 54.863281 213.21875 C 54.710938 213.449219 54.582031 213.691406 54.476562 213.949219 C 54.367188 214.203125 54.289062 214.46875 54.234375 214.738281 C 54.179688 215.011719 54.152344 215.285156 54.152344 215.5625 C 54.152344 215.839844 54.179688 216.113281 54.234375 216.386719 C 54.289062 216.65625 54.367188 216.921875 54.476562 217.175781 C 54.582031 217.433594 54.710938 217.675781 54.863281 217.90625 C 55.019531 218.136719 55.191406 218.347656 55.390625 218.542969 C 55.585938 218.742188 55.796875 218.914062 56.027344 219.070312 C 56.257812 219.222656 56.5 219.351562 56.757812 219.457031 C 57.011719 219.566406 57.277344 219.644531 57.546875 219.699219 C 57.820312 219.753906 58.09375 219.78125 58.371094 219.78125 L 93.238281 219.78125 C 90.695312 227.082031 89.425781 234.601562 89.429688 242.335938 L 103.152344 242.335938 C 103.152344 242.417969 103.136719 242.496094 103.136719 242.582031 C 103.136719 243.527344 103.199219 244.457031 103.277344 245.378906 C 103.433594 247.292969 103.757812 249.179688 104.25 251.035156 C 104.742188 252.890625 105.390625 254.691406 106.199219 256.429688 C 107.007812 258.171875 107.960938 259.832031 109.0625 261.402344 C 110.164062 262.976562 111.390625 264.441406 112.75 265.796875 C 113.191406 266.242188 113.640625 266.671875 114.105469 267.089844 C 114.570312 267.511719 115.042969 267.914062 115.53125 268.304688 C 116.019531 268.695312 116.515625 269.074219 117.023438 269.4375 C 117.535156 269.796875 118.050781 270.144531 118.582031 270.480469 C 119.109375 270.8125 119.648438 271.128906 120.195312 271.429688 C 120.742188 271.734375 121.296875 272.019531 121.859375 272.289062 C 122.421875 272.558594 122.992188 272.8125 123.570312 273.050781 C 124.148438 273.289062 124.734375 273.507812 125.324219 273.710938 C 125.914062 273.914062 126.507812 274.101562 127.109375 274.273438 C 127.710938 274.441406 128.316406 274.59375 128.925781 274.730469 C 129.535156 274.863281 130.148438 274.980469 130.765625 275.082031 C 131.382812 275.179688 132 275.261719 132.625 275.328125 C 133.246094 275.390625 133.867188 275.4375 134.492188 275.464844 C 135.113281 275.492188 135.738281 275.503906 136.363281 275.496094 C 136.988281 275.488281 137.613281 275.464844 138.234375 275.421875 C 138.859375 275.378906 139.480469 275.316406 140.097656 275.238281 C 140.71875 275.160156 141.335938 275.0625 141.949219 274.949219 C 142.5625 274.835938 143.175781 274.703125 143.78125 274.554688 C 144.386719 274.40625 144.988281 274.238281 145.585938 274.054688 C 146.183594 273.871094 146.773438 273.671875 147.359375 273.453125 C 147.945312 273.234375 148.523438 273 149.097656 272.75 C 149.667969 272.5 150.234375 272.234375 150.789062 271.949219 C 151.347656 271.667969 151.894531 271.367188 152.433594 271.050781 C 152.972656 270.738281 153.503906 270.40625 154.023438 270.0625 C 154.542969 269.71875 155.054688 269.359375 155.554688 268.984375 C 156.054688 268.609375 156.542969 268.222656 157.019531 267.820312 C 157.5 267.417969 157.964844 267 158.417969 266.570312 C 158.871094 266.140625 159.3125 265.699219 159.742188 265.246094 C 160.171875 264.792969 160.585938 264.324219 160.988281 263.847656 C 161.390625 263.367188 161.777344 262.878906 162.152344 262.378906 C 162.523438 261.878906 162.882812 261.367188 163.226562 260.847656 C 163.574219 260.324219 163.902344 259.796875 164.214844 259.253906 C 164.59375 258.617188 164.953125 257.964844 165.285156 257.296875 C 167.179688 253.542969 168.304688 249.570312 168.660156 245.378906 C 168.738281 244.457031 168.800781 243.527344 168.800781 242.582031 C 168.800781 242.5 168.785156 242.421875 168.785156 242.335938 L 248.914062 242.335938 C 250.867188 242.3125 252.785156 242.0625 254.675781 241.585938 C 256.566406 241.109375 258.375 240.414062 260.101562 239.507812 C 261.828125 238.601562 263.425781 237.503906 264.894531 236.21875 C 266.359375 234.933594 267.65625 233.496094 268.78125 231.902344 L 270.152344 229.914062 C 269.855469 232.921875 269.851562 235.933594 270.148438 238.941406 C 270.277344 240.257812 270.496094 241.542969 270.730469 242.816406 C 271.453125 246.726562 272.664062 250.476562 274.359375 254.066406 C 274.925781 253.820312 275.46875 253.53125 275.992188 253.203125 C 276.816406 252.691406 277.597656 252.117188 278.335938 251.488281 C 279.335938 250.632812 280.246094 249.695312 281.066406 248.667969 C 281.550781 248.066406 281.996094 247.441406 282.410156 246.789062 C 282.953125 245.9375 283.433594 245.082031 283.886719 244.226562 C 288.632812 235.285156 289.152344 226.199219 299.144531 216.328125 C 300.425781 215.054688 301.804688 213.902344 303.28125 212.867188 Z M 154.078125 242.582031 C 154.066406 243.167969 154.03125 243.753906 153.964844 244.339844 C 153.898438 244.921875 153.804688 245.503906 153.683594 246.078125 C 153.5625 246.652344 153.414062 247.222656 153.234375 247.78125 C 153.058594 248.34375 152.855469 248.890625 152.625 249.433594 C 152.394531 249.972656 152.136719 250.5 151.855469 251.015625 C 151.574219 251.53125 151.265625 252.035156 150.9375 252.519531 C 150.605469 253.003906 150.25 253.472656 149.875 253.925781 C 149.496094 254.375 149.101562 254.808594 148.683594 255.222656 C 148.261719 255.632812 147.824219 256.023438 147.367188 256.394531 C 146.914062 256.765625 146.4375 257.113281 145.949219 257.4375 C 145.457031 257.761719 144.953125 258.058594 144.433594 258.335938 C 143.914062 258.609375 143.382812 258.859375 142.839844 259.082031 C 142.292969 259.304688 141.742188 259.5 141.179688 259.667969 C 140.617188 259.835938 140.046875 259.980469 139.46875 260.09375 C 138.890625 260.207031 138.3125 260.292969 137.726562 260.347656 C 137.140625 260.40625 136.554688 260.433594 135.96875 260.433594 C 135.378906 260.433594 134.792969 260.40625 134.207031 260.347656 C 133.625 260.292969 133.042969 260.207031 132.464844 260.09375 C 131.890625 259.980469 131.320312 259.835938 130.757812 259.667969 C 130.191406 259.5 129.640625 259.304688 129.097656 259.082031 C 128.550781 258.859375 128.019531 258.609375 127.5 258.335938 C 126.980469 258.058594 126.476562 257.761719 125.984375 257.4375 C 125.496094 257.113281 125.023438 256.765625 124.566406 256.394531 C 124.109375 256.023438 123.671875 255.632812 123.253906 255.222656 C 122.832031 254.808594 122.4375 254.375 122.058594 253.925781 C 121.683594 253.472656 121.328125 253.003906 121 252.519531 C 120.667969 252.035156 120.359375 251.53125 120.078125 251.015625 C 119.796875 250.5 119.539062 249.972656 119.308594 249.433594 C 119.078125 248.890625 118.875 248.34375 118.699219 247.78125 C 118.519531 247.222656 118.371094 246.652344 118.25 246.078125 C 118.128906 245.503906 118.035156 244.921875 117.96875 244.339844 C 117.902344 243.753906 117.867188 243.167969 117.859375 242.582031 C 117.859375 242.5 117.882812 242.421875 117.882812 242.335938 L 154.050781 242.335938 C 154.050781 242.421875 154.078125 242.5 154.078125 242.582031 Z M 197.03125 63.480469 C 196.582031 60.097656 195.679688 52.980469 195.769531 51.121094 C 196.371094 38.148438 205.429688 28.03125 220.347656 28.726562 C 221.597656 28.785156 222.832031 28.941406 224.050781 29.195312 C 225.273438 29.449219 226.46875 29.796875 227.636719 30.242188 C 228.800781 30.6875 229.925781 31.222656 231.007812 31.847656 C 232.089844 32.46875 233.113281 33.175781 234.082031 33.960938 C 235.050781 34.75 235.953125 35.605469 236.785156 36.539062 C 237.617188 37.46875 238.371094 38.457031 239.046875 39.507812 C 239.722656 40.558594 240.308594 41.65625 240.808594 42.800781 C 241.308594 43.941406 241.714844 45.117188 242.027344 46.328125 L 219.183594 45.265625 C 218.871094 45.25 218.566406 45.296875 218.269531 45.402344 C 217.976562 45.511719 217.710938 45.667969 217.480469 45.882812 C 217.246094 46.09375 217.0625 46.339844 216.929688 46.625 C 216.796875 46.910156 216.722656 47.207031 216.707031 47.523438 L 216.347656 55.253906 C 216.332031 55.613281 216.375 55.964844 216.472656 56.3125 C 216.570312 56.660156 216.722656 56.980469 216.929688 57.273438 C 217.132812 57.570312 217.378906 57.828125 217.667969 58.042969 C 217.957031 58.257812 218.273438 58.421875 218.613281 58.53125 L 241.078125 65.839844 C 239.664062 70.023438 237.625 73.875 234.953125 77.390625 C 234.75 77.65625 234.511719 77.878906 234.238281 78.066406 C 233.960938 78.253906 233.664062 78.394531 233.34375 78.484375 C 233.027344 78.574219 232.699219 78.613281 232.367188 78.597656 C 232.035156 78.582031 231.714844 78.515625 231.402344 78.394531 L 198.976562 65.945312 C 198.449219 65.746094 198.011719 65.421875 197.664062 64.980469 C 197.316406 64.539062 197.105469 64.039062 197.03125 63.480469 Z M 66.515625 112.414062 L 25.148438 112.414062 C 24.855469 112.414062 24.5625 112.382812 24.273438 112.324219 C 23.984375 112.261719 23.703125 112.171875 23.433594 112.050781 C 23.164062 111.929688 22.910156 111.785156 22.671875 111.609375 C 22.433594 111.4375 22.214844 111.242188 22.015625 111.023438 C 21.820312 110.800781 21.648438 110.566406 21.5 110.308594 C 21.351562 110.054688 21.230469 109.785156 21.140625 109.503906 C 21.046875 109.222656 20.988281 108.9375 20.957031 108.644531 C 20.925781 108.351562 20.921875 108.054688 20.953125 107.761719 C 21.171875 105.566406 23.183594 103.980469 25.390625 103.980469 L 77.332031 103.980469 C 77.625 103.980469 77.917969 103.949219 78.207031 103.890625 C 78.496094 103.828125 78.773438 103.738281 79.042969 103.617188 C 79.3125 103.496094 79.566406 103.351562 79.808594 103.175781 C 80.046875 103.003906 80.265625 102.808594 80.460938 102.589844 C 80.660156 102.367188 80.832031 102.132812 80.980469 101.875 C 81.128906 101.621094 81.246094 101.351562 81.339844 101.070312 C 81.429688 100.789062 81.492188 100.503906 81.523438 100.210938 C 81.554688 99.917969 81.554688 99.621094 81.523438 99.328125 C 81.304688 97.132812 79.296875 95.546875 77.089844 95.546875 L 35.476562 95.546875 C 35.199219 95.546875 34.925781 95.519531 34.652344 95.464844 C 34.382812 95.414062 34.117188 95.332031 33.863281 95.226562 C 33.605469 95.121094 33.363281 94.992188 33.132812 94.835938 C 32.902344 94.683594 32.691406 94.507812 32.496094 94.3125 C 32.300781 94.117188 32.125 93.902344 31.96875 93.671875 C 31.816406 93.441406 31.6875 93.199219 31.582031 92.945312 C 31.472656 92.6875 31.394531 92.425781 31.339844 92.152344 C 31.285156 91.882812 31.257812 91.605469 31.257812 91.332031 C 31.257812 91.054688 31.285156 90.78125 31.339844 90.507812 C 31.394531 90.234375 31.472656 89.972656 31.582031 89.714844 C 31.6875 89.460938 31.816406 89.21875 31.96875 88.988281 C 32.125 88.757812 32.300781 88.542969 32.496094 88.347656 C 32.691406 88.152344 32.902344 87.976562 33.132812 87.824219 C 33.363281 87.671875 33.605469 87.539062 33.863281 87.433594 C 34.117188 87.328125 34.382812 87.25 34.652344 87.195312 C 34.925781 87.140625 35.199219 87.113281 35.476562 87.113281 L 77.332031 87.113281 C 77.625 87.113281 77.917969 87.082031 78.207031 87.023438 C 78.496094 86.960938 78.773438 86.871094 79.042969 86.75 C 79.3125 86.628906 79.566406 86.484375 79.808594 86.308594 C 80.046875 86.136719 80.265625 85.941406 80.460938 85.71875 C 80.660156 85.5 80.832031 85.265625 80.980469 85.007812 C 81.128906 84.753906 81.246094 84.484375 81.339844 84.203125 C 81.429688 83.921875 81.492188 83.636719 81.523438 83.34375 C 81.554688 83.050781 81.554688 82.753906 81.523438 82.460938 C 81.304688 80.265625 79.296875 78.679688 77.089844 78.679688 L 48.011719 78.679688 C 47.71875 78.679688 47.425781 78.648438 47.136719 78.585938 C 46.847656 78.527344 46.566406 78.433594 46.296875 78.316406 C 46.027344 78.195312 45.773438 78.046875 45.535156 77.875 C 45.296875 77.703125 45.078125 77.503906 44.878906 77.285156 C 44.683594 77.066406 44.507812 76.828125 44.363281 76.574219 C 44.214844 76.320312 44.09375 76.050781 44.003906 75.769531 C 43.910156 75.488281 43.851562 75.203125 43.820312 74.910156 C 43.789062 74.613281 43.785156 74.320312 43.816406 74.027344 C 44.039062 71.832031 46.046875 70.246094 48.253906 70.246094 L 66.515625 70.246094 L 66.515625 65.402344 C 66.515625 65.128906 66.542969 64.855469 66.597656 64.585938 C 66.652344 64.316406 66.730469 64.054688 66.835938 63.804688 C 66.941406 63.550781 67.070312 63.308594 67.222656 63.082031 C 67.375 62.851562 67.546875 62.640625 67.742188 62.449219 C 67.933594 62.253906 68.144531 62.082031 68.375 61.929688 C 68.601562 61.777344 68.84375 61.648438 69.097656 61.542969 C 69.347656 61.4375 69.609375 61.359375 69.878906 61.304688 C 70.148438 61.25 70.421875 61.222656 70.695312 61.222656 L 164.003906 61.222656 C 164.277344 61.222656 164.550781 61.25 164.820312 61.304688 C 165.089844 61.359375 165.351562 61.4375 165.601562 61.542969 C 165.855469 61.648438 166.097656 61.777344 166.324219 61.929688 C 166.554688 62.082031 166.765625 62.253906 166.957031 62.449219 C 167.152344 62.640625 167.324219 62.851562 167.476562 63.082031 C 167.628906 63.308594 167.757812 63.550781 167.863281 63.804688 C 167.96875 64.054688 168.046875 64.316406 168.101562 64.585938 C 168.15625 64.855469 168.183594 65.128906 168.183594 65.402344 L 168.183594 146.886719 C 168.183594 147.273438 168.144531 147.652344 168.070312 148.027344 C 167.996094 148.40625 167.882812 148.769531 167.738281 149.125 C 167.589844 149.480469 167.410156 149.816406 167.195312 150.136719 C 166.984375 150.457031 166.742188 150.75 166.46875 151.023438 C 166.199219 151.292969 165.902344 151.535156 165.585938 151.75 C 165.265625 151.960938 164.929688 152.140625 164.574219 152.289062 C 164.21875 152.4375 163.851562 152.546875 163.476562 152.621094 C 163.101562 152.695312 162.71875 152.734375 162.335938 152.734375 L 70.695312 152.734375 C 70.421875 152.734375 70.148438 152.707031 69.878906 152.652344 C 69.609375 152.601562 69.347656 152.519531 69.097656 152.417969 C 68.84375 152.3125 68.601562 152.183594 68.375 152.03125 C 68.144531 151.878906 67.933594 151.703125 67.742188 151.511719 C 67.546875 151.316406 67.375 151.105469 67.222656 150.878906 C 67.070312 150.648438 66.941406 150.410156 66.835938 150.15625 C 66.730469 149.902344 66.652344 149.640625 66.597656 149.371094 C 66.542969 149.101562 66.515625 148.832031 66.515625 148.558594 L 66.515625 120.847656 L 77.332031 120.847656 C 77.625 120.847656 77.917969 120.816406 78.207031 120.757812 C 78.496094 120.695312 78.773438 120.605469 79.042969 120.484375 C 79.3125 120.363281 79.566406 120.21875 79.808594 120.042969 C 80.046875 119.871094 80.265625 119.675781 80.460938 119.457031 C 80.660156 119.238281 80.832031 119 80.980469 118.742188 C 81.128906 118.488281 81.246094 118.21875 81.339844 117.9375 C 81.429688 117.660156 81.492188 117.371094 81.523438 117.078125 C 81.554688 116.785156 81.554688 116.492188 81.523438 116.199219 C 81.304688 114.003906 79.296875 112.414062 77.089844 112.414062 Z M 66.515625 112.414062 " fill-opacity="1" fill-rule="nonzero"/></g><g clip-path="url(#ee80580549)"><g clip-path="url(#34a8236b8f)"><path fill="url(#ff1490f153)" d="M 54.527344 297.570312 L 54.527344 327.546875 L 320.777344 327.546875 L 320.777344 297.570312 Z M 54.527344 297.570312 " fill-rule="nonzero"/></g></g></svg>