<svg xmlns="http://www.w3.org/2000/svg" xmlns:xlink="http://www.w3.org/1999/xlink" width="500" zoomAndPan="magnify" viewBox="0 0 375 374.999991" height="500" preserveAspectRatio="xMidYMid meet" version="1.0"><defs><clipPath id="0cb9fd6ff4"><path d="M 68.796875 37.5 L 306.546875 37.5 L 306.546875 214 L 68.796875 214 Z M 68.796875 37.5 " clip-rule="nonzero"/></clipPath><clipPath id="e66115e496"><path d="M 57.285156 241.484375 L 323.535156 241.484375 L 323.535156 271.484375 L 57.285156 271.484375 Z M 57.285156 241.484375 " clip-rule="nonzero"/></clipPath><clipPath id="385ecc5191"><path d="M 59.785156 266.445312 L 91.738281 266.445312 L 91.738281 262.875 L 68.035156 262.875 C 66.664062 262.875 65.539062 261.761719 65.539062 260.402344 C 65.539062 259.039062 66.664062 257.925781 68.035156 257.925781 L 91.738281 257.925781 L 91.738281 253.261719 L 77.390625 253.261719 C 76.335938 253.261719 75.472656 252.40625 75.472656 251.363281 C 75.472656 250.316406 76.335938 249.464844 77.390625 249.464844 L 91.738281 249.464844 L 91.738281 245.609375 L 84.234375 245.609375 C 83.089844 245.609375 82.15625 244.683594 82.15625 243.554688 C 82.15625 242.421875 83.089844 241.496094 84.234375 241.496094 C 91.363281 241.496094 98.480469 241.550781 105.609375 241.550781 C 108.335938 241.550781 110.550781 241.921875 112.230469 242.652344 C 113.914062 243.390625 115.304688 244.441406 116.410156 245.8125 C 117.503906 247.191406 118.300781 248.789062 118.792969 250.613281 C 119.289062 252.4375 119.535156 254.367188 119.535156 256.40625 C 119.535156 259.605469 119.171875 262.085938 118.433594 263.847656 C 117.703125 265.609375 116.683594 267.085938 115.375 268.277344 C 114.066406 269.46875 112.667969 270.261719 111.171875 270.660156 C 109.125 271.203125 107.269531 271.472656 105.609375 271.472656 C 90.324219 271.472656 75.125 271.394531 59.785156 271.394531 C 58.410156 271.394531 57.285156 270.28125 57.285156 268.921875 C 57.285156 267.558594 58.410156 266.445312 59.785156 266.445312 Z M 290.675781 241.550781 L 301.039062 241.550781 L 307.148438 251.625 L 313.230469 241.550781 L 323.535156 241.550781 L 311.808594 258.945312 L 311.808594 271.472656 L 302.445312 271.472656 L 302.445312 258.945312 Z M 262.839844 271.472656 L 262.839844 241.550781 L 278.394531 241.550781 C 281.277344 241.550781 283.484375 241.796875 285 242.289062 C 286.527344 242.777344 287.757812 243.691406 288.691406 245.011719 C 289.628906 246.34375 290.09375 247.964844 290.09375 249.875 C 290.09375 251.53125 289.734375 252.96875 289.015625 254.171875 C 288.304688 255.382812 287.320312 256.359375 286.0625 257.113281 C 285.269531 257.585938 284.171875 257.980469 282.789062 258.296875 C 283.898438 258.664062 284.707031 259.027344 285.210938 259.394531 C 285.550781 259.640625 286.050781 260.167969 286.703125 260.96875 C 287.351562 261.769531 287.785156 262.390625 288.003906 262.828125 L 292.539062 271.472656 L 281.992188 271.472656 L 277.007812 262.347656 C 276.375 261.164062 275.8125 260.398438 275.320312 260.042969 C 274.644531 259.585938 273.878906 259.355469 273.027344 259.355469 L 272.207031 259.355469 L 272.207031 271.472656 Z M 272.207031 253.710938 L 276.148438 253.710938 C 276.570312 253.710938 277.402344 253.574219 278.625 253.300781 C 279.242188 253.183594 279.75 252.871094 280.136719 252.363281 C 280.53125 251.851562 280.726562 251.273438 280.726562 250.621094 C 280.726562 249.652344 280.417969 248.90625 279.800781 248.390625 C 279.179688 247.867188 278.019531 247.609375 276.3125 247.609375 L 272.207031 247.609375 Z M 232.25 241.550781 L 257.222656 241.550781 L 257.222656 247.945312 L 241.617188 247.945312 L 241.617188 252.710938 L 256.085938 252.710938 L 256.085938 258.8125 L 241.617188 258.8125 L 241.617188 264.703125 L 257.6875 264.703125 L 257.6875 271.472656 L 232.25 271.472656 Z M 196.488281 241.550781 L 206.238281 241.550781 L 213.042969 263.085938 L 219.75 241.550781 L 229.222656 241.550781 L 218.007812 271.472656 L 207.898438 271.472656 Z M 183.402344 241.550781 L 192.765625 241.550781 L 192.765625 271.472656 L 183.402344 271.472656 Z M 154.886719 241.550781 L 164.210938 241.550781 L 164.210938 264.117188 L 178.804688 264.117188 L 178.804688 271.472656 L 154.886719 271.472656 Z M 124.421875 241.550781 L 149.394531 241.550781 L 149.394531 247.945312 L 133.789062 247.945312 L 133.789062 252.710938 L 148.257812 252.710938 L 148.257812 258.8125 L 133.789062 258.8125 L 133.789062 264.703125 L 149.859375 264.703125 L 149.859375 271.472656 L 124.421875 271.472656 Z M 101.058594 248.320312 L 101.058594 264.660156 L 103.351562 264.660156 C 105.308594 264.660156 106.699219 264.445312 107.527344 264.019531 C 108.351562 263.589844 108.996094 262.84375 109.46875 261.777344 C 109.941406 260.707031 110.171875 258.976562 110.171875 256.582031 C 110.171875 253.414062 109.652344 251.246094 108.605469 250.078125 C 107.558594 248.90625 105.820312 248.320312 103.394531 248.320312 Z M 101.058594 248.320312 " clip-rule="evenodd"/></clipPath><linearGradient x1="168189.932969" gradientTransform="matrix(0.00195273, 0, 0, 0.00193454, -4.861222, 63.030208)" y1="97760.828651" x2="31798.024242" gradientUnits="userSpaceOnUse" y2="98160.796482" id="98ee89d055"><stop stop-opacity="1" stop-color="rgb(93.299866%, 50.999451%, 10.598755%)" offset="0"/><stop stop-opacity="1" stop-color="rgb(93.299866%, 50.999451%, 10.598755%)" offset="0.000333187"/><stop stop-opacity="1" stop-color="rgb(93.299866%, 50.999451%, 10.598755%)" offset="0.03125"/><stop stop-opacity="1" stop-color="rgb(93.267822%, 50.836182%, 10.626221%)" offset="0.046875"/><stop stop-opacity="1" stop-color="rgb(93.205261%, 50.506592%, 10.684204%)" offset="0.0546875"/><stop stop-opacity="1" stop-color="rgb(93.141174%, 50.17395%, 10.742188%)" offset="0.0625"/><stop stop-opacity="1" stop-color="rgb(93.077087%, 49.841309%, 10.798645%)" offset="0.0703125"/><stop stop-opacity="1" stop-color="rgb(93.013%, 49.507141%, 10.856628%)" offset="0.078125"/><stop stop-opacity="1" stop-color="rgb(92.948914%, 49.1745%, 10.914612%)" offset="0.0859375"/><stop stop-opacity="1" stop-color="rgb(92.884827%, 48.841858%, 10.971069%)" offset="0.09375"/><stop stop-opacity="1" stop-color="rgb(92.82074%, 48.50769%, 11.029053%)" offset="0.101563"/><stop stop-opacity="1" stop-color="rgb(92.758179%, 48.175049%, 11.087036%)" offset="0.109375"/><stop stop-opacity="1" stop-color="rgb(92.694092%, 47.842407%, 11.143494%)" offset="0.117188"/><stop stop-opacity="1" stop-color="rgb(92.630005%, 47.50824%, 11.201477%)" offset="0.125"/><stop stop-opacity="1" stop-color="rgb(92.565918%, 47.175598%, 11.25946%)" offset="0.132813"/><stop stop-opacity="1" stop-color="rgb(92.501831%, 46.842957%, 11.315918%)" offset="0.140625"/><stop stop-opacity="1" stop-color="rgb(92.437744%, 46.508789%, 11.373901%)" offset="0.148438"/><stop stop-opacity="1" stop-color="rgb(92.373657%, 46.176147%, 11.431885%)" offset="0.15625"/><stop stop-opacity="1" stop-color="rgb(92.311096%, 45.843506%, 11.488342%)" offset="0.164062"/><stop stop-opacity="1" stop-color="rgb(92.247009%, 45.510864%, 11.546326%)" offset="0.171875"/><stop stop-opacity="1" stop-color="rgb(92.182922%, 45.176697%, 11.604309%)" offset="0.179688"/><stop stop-opacity="1" stop-color="rgb(92.118835%, 44.844055%, 11.660767%)" offset="0.1875"/><stop stop-opacity="1" stop-color="rgb(92.054749%, 44.511414%, 11.71875%)" offset="0.195312"/><stop stop-opacity="1" stop-color="rgb(91.990662%, 44.177246%, 11.776733%)" offset="0.203125"/><stop stop-opacity="1" stop-color="rgb(91.926575%, 43.844604%, 11.833191%)" offset="0.210938"/><stop stop-opacity="1" stop-color="rgb(91.862488%, 43.511963%, 11.891174%)" offset="0.21875"/><stop stop-opacity="1" stop-color="rgb(91.799927%, 43.177795%, 11.949158%)" offset="0.226562"/><stop stop-opacity="1" stop-color="rgb(91.73584%, 42.845154%, 12.005615%)" offset="0.234375"/><stop stop-opacity="1" stop-color="rgb(91.671753%, 42.512512%, 12.063599%)" offset="0.242188"/><stop stop-opacity="1" stop-color="rgb(91.607666%, 42.178345%, 12.121582%)" offset="0.25"/><stop stop-opacity="1" stop-color="rgb(91.543579%, 41.845703%, 12.179565%)" offset="0.257812"/><stop stop-opacity="1" stop-color="rgb(91.479492%, 41.513062%, 12.236023%)" offset="0.265625"/><stop stop-opacity="1" stop-color="rgb(91.415405%, 41.178894%, 12.294006%)" offset="0.273438"/><stop stop-opacity="1" stop-color="rgb(91.351318%, 40.846252%, 12.35199%)" offset="0.28125"/><stop stop-opacity="1" stop-color="rgb(91.288757%, 40.513611%, 12.408447%)" offset="0.289062"/><stop stop-opacity="1" stop-color="rgb(91.22467%, 40.180969%, 12.466431%)" offset="0.296875"/><stop stop-opacity="1" stop-color="rgb(91.160583%, 39.846802%, 12.524414%)" offset="0.304688"/><stop stop-opacity="1" stop-color="rgb(91.096497%, 39.51416%, 12.580872%)" offset="0.3125"/><stop stop-opacity="1" stop-color="rgb(91.03241%, 39.181519%, 12.638855%)" offset="0.320312"/><stop stop-opacity="1" stop-color="rgb(90.968323%, 38.847351%, 12.696838%)" offset="0.328125"/><stop stop-opacity="1" stop-color="rgb(90.904236%, 38.514709%, 12.753296%)" offset="0.335938"/><stop stop-opacity="1" stop-color="rgb(90.841675%, 38.182068%, 12.811279%)" offset="0.34375"/><stop stop-opacity="1" stop-color="rgb(90.777588%, 37.8479%, 12.869263%)" offset="0.351563"/><stop stop-opacity="1" stop-color="rgb(90.713501%, 37.515259%, 12.92572%)" offset="0.359375"/><stop stop-opacity="1" stop-color="rgb(90.649414%, 37.182617%, 12.983704%)" offset="0.367188"/><stop stop-opacity="1" stop-color="rgb(90.585327%, 36.84845%, 13.041687%)" offset="0.375"/><stop stop-opacity="1" stop-color="rgb(90.52124%, 36.515808%, 13.098145%)" offset="0.382813"/><stop stop-opacity="1" stop-color="rgb(90.457153%, 36.183167%, 13.156128%)" offset="0.390625"/><stop stop-opacity="1" stop-color="rgb(90.393066%, 35.848999%, 13.214111%)" offset="0.398438"/><stop stop-opacity="1" stop-color="rgb(90.330505%, 35.516357%, 13.270569%)" offset="0.40625"/><stop stop-opacity="1" stop-color="rgb(90.266418%, 35.183716%, 13.328552%)" offset="0.414062"/><stop stop-opacity="1" stop-color="rgb(90.202332%, 34.851074%, 13.386536%)" offset="0.421875"/><stop stop-opacity="1" stop-color="rgb(90.138245%, 34.516907%, 13.444519%)" offset="0.429688"/><stop stop-opacity="1" stop-color="rgb(90.074158%, 34.184265%, 13.500977%)" offset="0.4375"/><stop stop-opacity="1" stop-color="rgb(90.010071%, 33.851624%, 13.55896%)" offset="0.445312"/><stop stop-opacity="1" stop-color="rgb(89.945984%, 33.517456%, 13.616943%)" offset="0.453125"/><stop stop-opacity="1" stop-color="rgb(89.883423%, 33.184814%, 13.673401%)" offset="0.460938"/><stop stop-opacity="1" stop-color="rgb(89.819336%, 32.852173%, 13.731384%)" offset="0.46875"/><stop stop-opacity="1" stop-color="rgb(89.755249%, 32.518005%, 13.789368%)" offset="0.476563"/><stop stop-opacity="1" stop-color="rgb(89.691162%, 32.185364%, 13.845825%)" offset="0.484375"/><stop stop-opacity="1" stop-color="rgb(89.627075%, 31.852722%, 13.903809%)" offset="0.492188"/><stop stop-opacity="1" stop-color="rgb(89.562988%, 31.518555%, 13.961792%)" offset="0.5"/><stop stop-opacity="1" stop-color="rgb(89.498901%, 31.185913%, 14.01825%)" offset="0.507812"/><stop stop-opacity="1" stop-color="rgb(89.434814%, 30.853271%, 14.076233%)" offset="0.515625"/><stop stop-opacity="1" stop-color="rgb(89.372253%, 30.52063%, 14.134216%)" offset="0.523438"/><stop stop-opacity="1" stop-color="rgb(89.308167%, 30.186462%, 14.190674%)" offset="0.53125"/><stop stop-opacity="1" stop-color="rgb(89.24408%, 29.853821%, 14.248657%)" offset="0.539062"/><stop stop-opacity="1" stop-color="rgb(89.179993%, 29.521179%, 14.306641%)" offset="0.546875"/><stop stop-opacity="1" stop-color="rgb(89.115906%, 29.187012%, 14.363098%)" offset="0.554688"/><stop stop-opacity="1" stop-color="rgb(89.051819%, 28.85437%, 14.421082%)" offset="0.5625"/><stop stop-opacity="1" stop-color="rgb(88.987732%, 28.521729%, 14.479065%)" offset="0.570313"/><stop stop-opacity="1" stop-color="rgb(88.925171%, 28.187561%, 14.535522%)" offset="0.578125"/><stop stop-opacity="1" stop-color="rgb(88.861084%, 27.854919%, 14.593506%)" offset="0.585938"/><stop stop-opacity="1" stop-color="rgb(88.796997%, 27.522278%, 14.651489%)" offset="0.59375"/><stop stop-opacity="1" stop-color="rgb(88.73291%, 27.18811%, 14.709473%)" offset="0.601563"/><stop stop-opacity="1" stop-color="rgb(88.668823%, 26.855469%, 14.76593%)" offset="0.609375"/><stop stop-opacity="1" stop-color="rgb(88.604736%, 26.522827%, 14.823914%)" offset="0.617188"/><stop stop-opacity="1" stop-color="rgb(88.540649%, 26.18866%, 14.881897%)" offset="0.625"/><stop stop-opacity="1" stop-color="rgb(88.476562%, 25.856018%, 14.938354%)" offset="0.632812"/><stop stop-opacity="1" stop-color="rgb(88.414001%, 25.523376%, 14.996338%)" offset="0.640625"/><stop stop-opacity="1" stop-color="rgb(88.349915%, 25.190735%, 15.054321%)" offset="0.648438"/><stop stop-opacity="1" stop-color="rgb(88.285828%, 24.856567%, 15.110779%)" offset="0.65625"/><stop stop-opacity="1" stop-color="rgb(88.221741%, 24.523926%, 15.168762%)" offset="0.664062"/><stop stop-opacity="1" stop-color="rgb(88.157654%, 24.191284%, 15.226746%)" offset="0.671875"/><stop stop-opacity="1" stop-color="rgb(88.093567%, 23.857117%, 15.283203%)" offset="0.679688"/><stop stop-opacity="1" stop-color="rgb(88.02948%, 23.524475%, 15.341187%)" offset="0.6875"/><stop stop-opacity="1" stop-color="rgb(87.966919%, 23.191833%, 15.39917%)" offset="0.695312"/><stop stop-opacity="1" stop-color="rgb(87.902832%, 22.857666%, 15.455627%)" offset="0.703125"/><stop stop-opacity="1" stop-color="rgb(87.838745%, 22.525024%, 15.513611%)" offset="0.710938"/><stop stop-opacity="1" stop-color="rgb(87.774658%, 22.192383%, 15.571594%)" offset="0.71875"/><stop stop-opacity="1" stop-color="rgb(87.710571%, 21.858215%, 15.628052%)" offset="0.726562"/><stop stop-opacity="1" stop-color="rgb(87.646484%, 21.525574%, 15.686035%)" offset="0.734375"/><stop stop-opacity="1" stop-color="rgb(87.582397%, 21.192932%, 15.744019%)" offset="0.742187"/><stop stop-opacity="1" stop-color="rgb(87.518311%, 20.858765%, 15.800476%)" offset="0.75"/><stop stop-opacity="1" stop-color="rgb(87.45575%, 20.526123%, 15.858459%)" offset="0.757812"/><stop stop-opacity="1" stop-color="rgb(87.391663%, 20.193481%, 15.916443%)" offset="0.765625"/><stop stop-opacity="1" stop-color="rgb(87.327576%, 19.86084%, 15.9729%)" offset="0.773437"/><stop stop-opacity="1" stop-color="rgb(87.263489%, 19.526672%, 16.030884%)" offset="0.78125"/><stop stop-opacity="1" stop-color="rgb(87.199402%, 19.194031%, 16.088867%)" offset="0.789062"/><stop stop-opacity="1" stop-color="rgb(87.135315%, 18.861389%, 16.146851%)" offset="0.796875"/><stop stop-opacity="1" stop-color="rgb(87.071228%, 18.527222%, 16.203308%)" offset="0.804687"/><stop stop-opacity="1" stop-color="rgb(87.007141%, 18.19458%, 16.261292%)" offset="0.8125"/><stop stop-opacity="1" stop-color="rgb(86.94458%, 17.861938%, 16.319275%)" offset="0.820312"/><stop stop-opacity="1" stop-color="rgb(86.880493%, 17.527771%, 16.375732%)" offset="0.828125"/><stop stop-opacity="1" stop-color="rgb(86.816406%, 17.195129%, 16.433716%)" offset="0.835938"/><stop stop-opacity="1" stop-color="rgb(86.752319%, 16.862488%, 16.491699%)" offset="0.84375"/><stop stop-opacity="1" stop-color="rgb(86.688232%, 16.52832%, 16.548157%)" offset="0.851562"/><stop stop-opacity="1" stop-color="rgb(86.624146%, 16.195679%, 16.60614%)" offset="0.859375"/><stop stop-opacity="1" stop-color="rgb(86.560059%, 15.863037%, 16.664124%)" offset="0.867188"/><stop stop-opacity="1" stop-color="rgb(86.497498%, 15.530396%, 16.720581%)" offset="0.875"/><stop stop-opacity="1" stop-color="rgb(86.433411%, 15.196228%, 16.778564%)" offset="0.882812"/><stop stop-opacity="1" stop-color="rgb(86.369324%, 14.863586%, 16.836548%)" offset="0.890625"/><stop stop-opacity="1" stop-color="rgb(86.317444%, 14.598083%, 16.882324%)" offset="0.90625"/><stop stop-opacity="1" stop-color="rgb(86.299133%, 14.498901%, 16.899109%)" offset="0.9375"/><stop stop-opacity="1" stop-color="rgb(86.299133%, 14.498901%, 16.899109%)" offset="0.999667"/><stop stop-opacity="1" stop-color="rgb(86.299133%, 14.498901%, 16.899109%)" offset="1"/></linearGradient></defs><rect x="-37.5" width="450" fill="#ffffff" y="-37.499999" height="449.999989" fill-opacity="1"/><rect x="-37.5" width="450" fill="#ffffff" y="-37.499999" height="449.999989" fill-opacity="1"/><g clip-path="url(#0cb9fd6ff4)"><path fill="#f68712" d="M 303.042969 176.53125 C 301.574219 173.816406 299.671875 171.457031 297.328125 169.449219 C 294.988281 167.445312 292.363281 165.921875 289.457031 164.886719 C 287.234375 165.550781 284.980469 166.082031 282.695312 166.484375 C 277.628906 167.460938 272.84375 168.382812 268.300781 172.871094 C 263.75 177.367188 262.179688 181.519531 260.519531 185.917969 C 259.496094 188.628906 258.4375 191.425781 256.65625 194.222656 C 256.910156 195.609375 257.316406 196.953125 257.875 198.25 C 258.316406 199.320312 258.835938 200.355469 259.421875 201.351562 C 260.011719 202.351562 260.664062 203.304688 261.386719 204.210938 C 262.105469 205.117188 262.886719 205.96875 263.726562 206.769531 C 264.566406 207.566406 265.457031 208.304688 266.398438 208.980469 C 267.339844 209.652344 268.324219 210.261719 269.351562 210.796875 C 270.375 211.335938 271.433594 211.800781 272.527344 212.191406 C 273.617188 212.582031 274.730469 212.894531 275.863281 213.132812 C 276.996094 213.367188 278.140625 213.523438 279.296875 213.601562 C 280.453125 213.679688 281.609375 213.675781 282.765625 213.589844 C 283.921875 213.507812 285.066406 213.34375 286.199219 213.101562 C 287.332031 212.859375 288.441406 212.539062 289.53125 212.140625 C 290.617188 211.742188 291.675781 211.273438 292.695312 210.730469 C 293.71875 210.183594 294.699219 209.574219 295.636719 208.890625 C 296.574219 208.210938 297.460938 207.46875 298.296875 206.667969 C 299.132812 205.863281 299.90625 205.003906 300.621094 204.09375 C 301.335938 203.183594 301.984375 202.226562 302.570312 201.226562 C 302.855469 200.738281 303.128906 200.238281 303.386719 199.730469 C 304.832031 196.863281 305.691406 193.828125 305.960938 190.625 C 306.023438 189.917969 306.070312 189.207031 306.070312 188.488281 C 306.078125 184.246094 305.066406 180.257812 303.042969 176.53125 Z M 294.3125 192.007812 C 294.15625 192.558594 293.96875 193.097656 293.746094 193.625 C 293.523438 194.152344 293.269531 194.664062 292.984375 195.15625 C 292.695312 195.652344 292.378906 196.128906 292.03125 196.582031 C 291.6875 197.039062 291.3125 197.46875 290.914062 197.878906 C 290.511719 198.285156 290.085938 198.667969 289.640625 199.023438 C 289.191406 199.378906 288.722656 199.703125 288.230469 200 C 287.742188 200.296875 287.234375 200.558594 286.714844 200.792969 C 286.191406 201.027344 285.65625 201.222656 285.109375 201.390625 C 284.558594 201.554688 284.003906 201.683594 283.441406 201.78125 C 282.875 201.875 282.308594 201.9375 281.738281 201.960938 C 281.164062 201.984375 280.59375 201.972656 280.023438 201.925781 C 279.453125 201.878906 278.890625 201.792969 278.332031 201.675781 C 277.769531 201.558594 277.222656 201.402344 276.679688 201.214844 C 276.140625 201.027344 275.613281 200.808594 275.101562 200.554688 C 274.589844 200.300781 274.09375 200.015625 273.617188 199.699219 C 273.140625 199.382812 272.683594 199.039062 272.25 198.664062 C 271.816406 198.292969 271.410156 197.894531 271.023438 197.46875 C 270.640625 197.046875 270.285156 196.597656 269.957031 196.128906 C 269.632812 195.660156 269.335938 195.171875 269.070312 194.664062 C 268.800781 194.160156 268.570312 193.636719 268.367188 193.101562 C 268.167969 192.566406 268 192.019531 267.871094 191.464844 C 267.738281 190.90625 267.640625 190.34375 267.578125 189.777344 C 267.519531 189.207031 267.492188 188.636719 267.503906 188.066406 C 267.511719 187.492188 267.558594 186.925781 267.640625 186.359375 C 267.722656 185.792969 267.839844 185.234375 267.992188 184.683594 C 268.144531 184.128906 268.328125 183.589844 268.550781 183.0625 C 268.769531 182.535156 269.019531 182.023438 269.304688 181.527344 C 269.589844 181.027344 269.902344 180.550781 270.246094 180.09375 C 270.589844 179.636719 270.964844 179.203125 271.363281 178.792969 C 271.761719 178.382812 272.183594 178 272.628906 177.644531 C 273.074219 177.285156 273.542969 176.957031 274.03125 176.660156 C 274.519531 176.359375 275.023438 176.09375 275.546875 175.859375 C 276.066406 175.625 276.601562 175.421875 277.148438 175.253906 C 277.695312 175.085938 278.25 174.953125 278.8125 174.855469 C 279.375 174.753906 279.945312 174.691406 280.515625 174.664062 C 281.085938 174.640625 281.65625 174.648438 282.226562 174.691406 C 282.796875 174.738281 283.363281 174.816406 283.925781 174.933594 C 284.484375 175.046875 285.035156 175.199219 285.578125 175.382812 C 286.117188 175.570312 286.644531 175.785156 287.160156 176.039062 C 287.671875 176.289062 288.167969 176.570312 288.648438 176.882812 C 289.125 177.199219 289.582031 177.539062 290.019531 177.910156 C 290.453125 178.28125 290.863281 178.679688 291.25 179.101562 C 291.636719 179.523438 291.992188 179.96875 292.324219 180.4375 C 292.652344 180.902344 292.953125 181.390625 293.222656 181.894531 C 293.488281 182.398438 293.726562 182.917969 293.929688 183.453125 C 294.132812 183.988281 294.300781 184.535156 294.4375 185.089844 C 294.570312 185.644531 294.671875 186.207031 294.734375 186.777344 C 294.800781 187.34375 294.828125 187.914062 294.820312 188.488281 C 294.804688 189.683594 294.632812 190.855469 294.3125 192.007812 Z M 269.90625 169.050781 C 271.308594 168.078125 272.804688 167.28125 274.394531 166.664062 C 274.898438 166.46875 275.40625 166.289062 275.914062 166.125 C 277.9375 165.515625 279.988281 165.03125 282.070312 164.667969 C 282.589844 164.566406 283.113281 164.46875 283.632812 164.363281 C 284.367188 164.21875 285.105469 164.0625 285.84375 163.894531 C 286.160156 163.820312 286.472656 163.753906 286.789062 163.675781 C 288.429688 163.277344 290.027344 162.75 291.582031 162.09375 C 292.597656 161.660156 293.578125 161.160156 294.523438 160.589844 C 294.929688 160.347656 295.292969 160.109375 295.617188 159.878906 C 296.472656 159.316406 297.230469 158.644531 297.894531 157.863281 C 295.808594 156.3125 293.558594 155.0625 291.136719 154.117188 C 290.9375 154.035156 290.742188 153.949219 290.539062 153.871094 C 289.460938 153.457031 288.359375 153.101562 287.242188 152.804688 C 287.027344 152.75 286.8125 152.699219 286.59375 152.648438 C 285.417969 152.351562 284.230469 152.125 283.027344 151.964844 C 281.789062 151.816406 280.550781 151.738281 279.304688 151.726562 C 279.066406 151.726562 278.832031 151.714844 278.589844 151.71875 C 277.613281 151.726562 276.628906 151.765625 275.636719 151.863281 C 271.640625 152.265625 267.84375 153.371094 264.253906 155.179688 L 266.3125 152.1875 L 267.328125 150.71875 C 267.808594 150.019531 268.199219 149.273438 268.5 148.480469 C 268.800781 147.683594 269 146.867188 269.101562 146.023438 C 269.203125 145.179688 269.203125 144.339844 269.097656 143.496094 C 268.992188 142.652344 268.789062 141.835938 268.488281 141.042969 L 255.039062 105.773438 L 263.328125 107.089844 C 263.539062 107.125 263.75 107.136719 263.960938 107.121094 C 264.175781 107.109375 264.382812 107.074219 264.589844 107.015625 C 264.792969 106.960938 264.988281 106.878906 265.175781 106.78125 C 265.367188 106.679688 265.539062 106.5625 265.703125 106.421875 C 265.863281 106.285156 266.007812 106.128906 266.136719 105.960938 C 266.265625 105.789062 266.375 105.609375 266.464844 105.417969 C 266.554688 105.222656 266.621094 105.023438 266.667969 104.8125 C 266.710938 104.605469 266.734375 104.394531 266.734375 104.183594 L 266.734375 88.699219 C 266.734375 88.488281 266.710938 88.277344 266.667969 88.070312 C 266.621094 87.859375 266.554688 87.660156 266.464844 87.46875 C 266.375 87.273438 266.265625 87.09375 266.136719 86.921875 C 266.007812 86.753906 265.863281 86.597656 265.703125 86.460938 C 265.539062 86.324219 265.363281 86.203125 265.175781 86.101562 C 264.988281 86.003906 264.792969 85.925781 264.589844 85.867188 C 264.382812 85.808594 264.175781 85.773438 263.960938 85.761719 C 263.75 85.75 263.539062 85.757812 263.328125 85.792969 L 244.320312 88.816406 C 243.914062 88.878906 243.53125 89.011719 243.171875 89.214844 C 242.8125 89.414062 242.5 89.671875 242.234375 89.984375 C 241.96875 90.296875 241.761719 90.648438 241.621094 91.03125 C 241.480469 91.417969 241.40625 91.816406 241.40625 92.226562 L 241.40625 95.082031 C 241.117188 95.023438 240.824219 94.984375 240.527344 94.96875 L 225.375 94.777344 C 224.863281 94.757812 224.378906 94.632812 223.921875 94.40625 C 223.464844 94.175781 223.074219 93.867188 222.75 93.46875 L 209.035156 76.570312 C 201.445312 67.269531 188.496094 70.167969 186.058594 81.917969 L 178.929688 108.722656 C 178.699219 109.8125 178.574219 110.917969 178.550781 112.03125 C 178.527344 113.148438 178.609375 114.257812 178.792969 115.359375 C 178.976562 116.457031 179.257812 117.53125 179.640625 118.582031 C 180.023438 119.628906 180.5 120.632812 181.070312 121.59375 C 181.640625 122.550781 182.292969 123.449219 183.027344 124.289062 C 183.765625 125.125 184.574219 125.890625 185.453125 126.578125 C 186.332031 127.265625 187.265625 127.867188 188.253906 128.378906 C 189.246094 128.894531 190.273438 129.3125 191.34375 129.636719 L 147.304688 129.636719 C 147.085938 129.636719 146.878906 129.675781 146.679688 129.761719 C 146.480469 129.84375 146.304688 129.960938 146.152344 130.113281 C 146 130.265625 145.882812 130.441406 145.796875 130.644531 C 145.714844 130.84375 145.675781 131.050781 145.675781 131.265625 L 145.675781 137.394531 C 145.675781 137.609375 145.714844 137.816406 145.800781 138.015625 C 145.882812 138.21875 146 138.394531 146.152344 138.546875 C 146.304688 138.699219 146.480469 138.816406 146.679688 138.898438 C 146.878906 138.980469 147.085938 139.023438 147.304688 139.023438 L 208.347656 139.023438 C 208.566406 139.023438 208.773438 138.980469 208.972656 138.898438 C 209.171875 138.816406 209.347656 138.699219 209.5 138.546875 C 209.65625 138.394531 209.773438 138.21875 209.855469 138.019531 C 209.9375 137.816406 209.980469 137.609375 209.980469 137.394531 L 209.980469 132.542969 L 218.300781 133.742188 L 211.714844 163.042969 C 211.636719 163.476562 211.605469 163.914062 211.613281 164.355469 C 211.621094 164.796875 211.671875 165.234375 211.765625 165.667969 C 211.859375 166.097656 211.996094 166.515625 212.171875 166.921875 C 212.34375 167.328125 212.558594 167.714844 212.808594 168.078125 C 213.058594 168.441406 213.34375 168.777344 213.65625 169.085938 C 213.972656 169.394531 214.316406 169.671875 214.6875 169.914062 C 215.054688 170.15625 215.445312 170.359375 215.855469 170.523438 C 216.265625 170.691406 216.6875 170.816406 217.121094 170.898438 C 217.554688 170.984375 217.992188 171.023438 218.433594 171.023438 C 218.875 171.023438 219.3125 170.976562 219.746094 170.890625 C 220.179688 170.804688 220.597656 170.675781 221.007812 170.507812 C 221.414062 170.339844 221.804688 170.132812 222.171875 169.886719 C 222.539062 169.644531 222.878906 169.367188 223.195312 169.054688 C 223.507812 168.742188 223.789062 168.40625 224.035156 168.039062 C 224.285156 167.675781 224.496094 167.289062 224.667969 166.882812 C 224.839844 166.472656 224.972656 166.054688 225.0625 165.621094 L 233.203125 133.285156 C 233.367188 132.507812 233.457031 131.722656 233.464844 130.925781 C 233.476562 130.132812 233.40625 129.34375 233.257812 128.5625 C 233.113281 127.777344 232.890625 127.019531 232.59375 126.28125 C 232.296875 125.542969 231.929688 124.84375 231.492188 124.175781 C 231.054688 123.511719 230.558594 122.898438 230 122.332031 C 229.4375 121.765625 228.832031 121.257812 228.171875 120.8125 C 227.511719 120.367188 226.816406 119.992188 226.082031 119.6875 C 225.347656 119.378906 224.589844 119.148438 223.8125 118.988281 C 216.957031 117.613281 208.445312 115.953125 204.015625 115.09375 C 203.621094 115.015625 203.253906 114.863281 202.921875 114.640625 C 202.589844 114.414062 202.3125 114.132812 202.09375 113.796875 C 201.875 113.460938 201.730469 113.09375 201.660156 112.699219 C 201.59375 112.304688 201.601562 111.910156 201.691406 111.519531 L 205.828125 93.140625 L 213.570312 102.3125 C 214.21875 103.109375 214.949219 103.820312 215.761719 104.449219 C 216.574219 105.074219 217.449219 105.601562 218.382812 106.027344 C 219.320312 106.453125 220.289062 106.761719 221.296875 106.960938 C 222.304688 107.160156 223.324219 107.242188 224.347656 107.207031 L 240.527344 106.320312 C 241.363281 106.289062 242.152344 106.085938 242.898438 105.703125 L 248.699219 137.980469 C 249.109375 140.265625 249.15625 142.554688 248.84375 144.855469 C 248.527344 147.152344 247.867188 149.34375 246.859375 151.433594 L 238.753906 168.222656 C 238.308594 169.148438 237.742188 169.992188 237.058594 170.757812 C 236.371094 171.523438 235.59375 172.179688 234.726562 172.726562 C 233.855469 173.273438 232.925781 173.6875 231.941406 173.972656 C 230.953125 174.253906 229.945312 174.398438 228.917969 174.398438 L 213.554688 174.398438 C 213.167969 174.398438 212.78125 174.375 212.398438 174.332031 C 212.011719 174.289062 211.628906 174.226562 211.253906 174.140625 C 210.875 174.058594 210.503906 173.953125 210.136719 173.824219 C 209.769531 173.699219 209.410156 173.554688 209.0625 173.386719 C 208.710938 173.222656 208.371094 173.039062 208.039062 172.835938 C 207.710938 172.632812 207.394531 172.410156 207.085938 172.171875 C 206.78125 171.933594 206.492188 171.679688 206.214844 171.410156 C 205.9375 171.140625 205.675781 170.855469 205.429688 170.554688 C 205.183594 170.257812 204.953125 169.945312 204.742188 169.621094 C 204.53125 169.292969 204.335938 168.960938 204.164062 168.613281 C 203.988281 168.265625 203.832031 167.914062 203.699219 167.550781 C 203.5625 167.1875 203.449219 166.816406 203.355469 166.441406 C 203.257812 166.066406 203.1875 165.6875 203.132812 165.300781 C 203.082031 164.917969 203.050781 164.53125 203.039062 164.144531 C 203.03125 163.757812 203.042969 163.371094 203.074219 162.984375 C 203.109375 162.597656 203.160156 162.214844 203.238281 161.835938 L 207.28125 141.394531 L 149.109375 141.394531 C 148.292969 141.394531 147.539062 141.605469 146.84375 142.035156 C 146.300781 142.375 145.566406 142.851562 144.691406 143.449219 C 144.207031 143.785156 143.667969 143.957031 143.078125 143.960938 L 118.214844 143.960938 C 117.816406 143.960938 117.433594 144.035156 117.0625 144.1875 C 116.695312 144.339844 116.371094 144.558594 116.089844 144.839844 C 115.808594 145.121094 115.59375 145.445312 115.441406 145.8125 C 115.289062 146.179688 115.210938 146.5625 115.210938 146.960938 C 115.210938 147.359375 115.289062 147.742188 115.441406 148.109375 C 115.59375 148.476562 115.808594 148.800781 116.089844 149.082031 C 116.371094 149.363281 116.695312 149.582031 117.0625 149.734375 C 117.433594 149.886719 117.816406 149.960938 118.214844 149.960938 L 146.613281 149.960938 C 147.011719 149.960938 147.394531 150.039062 147.761719 150.191406 C 148.128906 150.34375 148.453125 150.558594 148.738281 150.839844 C 149.019531 151.121094 149.234375 151.445312 149.386719 151.816406 C 149.539062 152.183594 149.617188 152.566406 149.617188 152.964844 C 149.617188 153.363281 149.539062 153.746094 149.386719 154.113281 C 149.234375 154.480469 149.019531 154.804688 148.738281 155.085938 C 148.453125 155.367188 148.128906 155.585938 147.761719 155.738281 C 147.394531 155.890625 147.011719 155.964844 146.613281 155.964844 L 75.023438 155.964844 C 74.625 155.964844 74.242188 156.042969 73.875 156.195312 C 73.507812 156.34375 73.179688 156.5625 72.898438 156.84375 C 72.617188 157.125 72.402344 157.449219 72.25 157.816406 C 72.097656 158.183594 72.019531 158.566406 72.019531 158.964844 C 72.019531 159.363281 72.097656 159.746094 72.25 160.113281 C 72.402344 160.484375 72.617188 160.808594 72.898438 161.089844 C 73.179688 161.371094 73.507812 161.585938 73.875 161.738281 C 74.242188 161.890625 74.625 161.96875 75.023438 161.96875 L 132.355469 161.96875 C 132.753906 161.964844 133.140625 162.035156 133.511719 162.1875 C 133.882812 162.339844 134.210938 162.554688 134.496094 162.835938 C 134.78125 163.117188 135 163.445312 135.15625 163.8125 C 135.308594 164.183594 135.386719 164.570312 135.386719 164.96875 C 135.386719 165.371094 135.308594 165.753906 135.15625 166.125 C 135 166.496094 134.78125 166.820312 134.496094 167.101562 C 134.210938 167.382812 133.882812 167.601562 133.511719 167.75 C 133.140625 167.902344 132.753906 167.972656 132.355469 167.96875 L 95.589844 167.96875 C 95.191406 167.96875 94.808594 168.046875 94.441406 168.199219 C 94.074219 168.351562 93.75 168.566406 93.46875 168.847656 C 93.1875 169.128906 92.96875 169.457031 92.816406 169.824219 C 92.664062 170.191406 92.589844 170.574219 92.589844 170.972656 C 92.589844 171.371094 92.664062 171.753906 92.816406 172.121094 C 92.96875 172.488281 93.1875 172.8125 93.46875 173.09375 C 93.75 173.375 94.074219 173.59375 94.441406 173.746094 C 94.808594 173.898438 95.191406 173.972656 95.589844 173.972656 L 120.40625 173.972656 C 118.597656 179.171875 117.695312 184.523438 117.695312 190.027344 L 127.464844 190.027344 C 127.464844 190.085938 127.453125 190.144531 127.453125 190.203125 C 127.453125 190.875 127.496094 191.535156 127.550781 192.195312 C 127.777344 194.941406 128.472656 197.5625 129.632812 200.058594 C 130.792969 202.558594 132.347656 204.78125 134.296875 206.726562 C 134.921875 207.359375 135.582031 207.953125 136.273438 208.511719 C 136.96875 209.070312 137.691406 209.585938 138.445312 210.058594 C 139.199219 210.53125 139.976562 210.960938 140.777344 211.347656 C 141.582031 211.730469 142.402344 212.070312 143.242188 212.359375 C 144.085938 212.648438 144.941406 212.890625 145.808594 213.082031 C 146.675781 213.273438 147.554688 213.417969 148.441406 213.507812 C 149.324219 213.601562 150.210938 213.640625 151.101562 213.628906 C 151.992188 213.621094 152.878906 213.558594 153.761719 213.445312 C 154.644531 213.332031 155.515625 213.171875 156.382812 212.960938 C 157.246094 212.746094 158.09375 212.484375 158.929688 212.175781 C 159.761719 211.863281 160.578125 211.507812 161.371094 211.105469 C 162.164062 210.703125 162.929688 210.253906 163.671875 209.761719 C 164.414062 209.269531 165.125 208.738281 165.804688 208.164062 C 166.484375 207.589844 167.132812 206.980469 167.742188 206.332031 C 168.351562 205.6875 168.921875 205.007812 169.457031 204.292969 C 169.988281 203.582031 170.476562 202.839844 170.925781 202.070312 C 171.195312 201.613281 171.449219 201.152344 171.6875 200.675781 C 173.035156 198.003906 173.835938 195.175781 174.089844 192.195312 C 174.144531 191.535156 174.1875 190.875 174.1875 190.203125 C 174.1875 190.144531 174.175781 190.085938 174.175781 190.027344 L 231.210938 190.027344 C 232.597656 190.011719 233.964844 189.832031 235.3125 189.492188 C 236.65625 189.152344 237.945312 188.660156 239.171875 188.015625 C 240.402344 187.371094 241.539062 186.589844 242.582031 185.675781 C 243.625 184.757812 244.550781 183.734375 245.351562 182.601562 L 246.324219 181.183594 C 246.113281 183.328125 246.113281 185.46875 246.324219 187.613281 C 246.414062 188.546875 246.570312 189.460938 246.738281 190.371094 C 247.253906 193.152344 248.113281 195.820312 249.320312 198.378906 C 249.722656 198.203125 250.113281 197.996094 250.484375 197.761719 C 251.070312 197.398438 251.625 196.992188 252.152344 196.542969 C 252.863281 195.933594 253.511719 195.265625 254.09375 194.535156 C 254.4375 194.105469 254.757812 193.660156 255.050781 193.199219 C 255.4375 192.589844 255.777344 191.980469 256.101562 191.375 C 259.480469 185.007812 259.851562 178.539062 266.964844 171.515625 C 267.875 170.609375 268.855469 169.789062 269.90625 169.050781 Z M 163.710938 190.203125 C 163.695312 191.042969 163.605469 191.871094 163.429688 192.691406 C 163.257812 193.511719 163.003906 194.308594 162.675781 195.078125 C 162.347656 195.851562 161.945312 196.582031 161.472656 197.277344 C 161 197.96875 160.464844 198.609375 159.871094 199.199219 C 159.273438 199.789062 158.625 200.3125 157.925781 200.773438 C 157.222656 201.238281 156.484375 201.628906 155.710938 201.945312 C 154.933594 202.265625 154.136719 202.503906 153.3125 202.667969 C 152.488281 202.828125 151.660156 202.910156 150.820312 202.910156 C 149.980469 202.910156 149.148438 202.828125 148.328125 202.667969 C 147.503906 202.503906 146.707031 202.265625 145.929688 201.945312 C 145.152344 201.628906 144.414062 201.238281 143.714844 200.773438 C 143.015625 200.3125 142.367188 199.789062 141.769531 199.199219 C 141.171875 198.609375 140.636719 197.96875 140.164062 197.277344 C 139.695312 196.582031 139.292969 195.851562 138.964844 195.078125 C 138.632812 194.308594 138.382812 193.511719 138.210938 192.691406 C 138.035156 191.871094 137.941406 191.042969 137.929688 190.203125 C 137.929688 190.144531 137.949219 190.089844 137.949219 190.027344 L 163.691406 190.027344 C 163.691406 190.089844 163.710938 190.144531 163.710938 190.203125 Z M 194.28125 62.726562 C 193.960938 60.316406 193.320312 55.253906 193.382812 53.929688 C 193.8125 44.699219 200.261719 37.496094 210.878906 37.988281 C 211.765625 38.03125 212.644531 38.140625 213.515625 38.324219 C 214.382812 38.503906 215.234375 38.753906 216.066406 39.070312 C 216.894531 39.386719 217.695312 39.765625 218.464844 40.210938 C 219.234375 40.65625 219.964844 41.15625 220.652344 41.714844 C 221.34375 42.277344 221.984375 42.886719 222.578125 43.550781 C 223.171875 44.210938 223.707031 44.917969 224.1875 45.664062 C 224.667969 46.410156 225.085938 47.191406 225.441406 48.007812 C 225.796875 48.820312 226.085938 49.65625 226.308594 50.519531 L 210.050781 49.761719 C 209.828125 49.753906 209.609375 49.785156 209.398438 49.859375 C 209.1875 49.9375 209 50.050781 208.835938 50.199219 C 208.671875 50.351562 208.539062 50.527344 208.445312 50.730469 C 208.351562 50.933594 208.296875 51.144531 208.289062 51.367188 L 208.03125 56.871094 C 208.019531 57.128906 208.050781 57.378906 208.121094 57.625 C 208.191406 57.871094 208.296875 58.097656 208.445312 58.308594 C 208.589844 58.519531 208.765625 58.703125 208.972656 58.855469 C 209.175781 59.007812 209.402344 59.125 209.644531 59.203125 L 225.632812 64.40625 C 224.628906 67.382812 223.171875 70.125 221.273438 72.625 C 220.976562 73.011719 220.597656 73.273438 220.128906 73.40625 C 219.660156 73.539062 219.199219 73.515625 218.746094 73.34375 L 195.667969 64.480469 C 195.292969 64.339844 194.980469 64.109375 194.734375 63.796875 C 194.484375 63.480469 194.335938 63.125 194.28125 62.726562 Z M 101.390625 97.554688 L 71.945312 97.554688 C 71.734375 97.554688 71.527344 97.535156 71.320312 97.492188 C 71.117188 97.445312 70.917969 97.382812 70.726562 97.296875 C 70.53125 97.210938 70.351562 97.105469 70.183594 96.984375 C 70.011719 96.859375 69.855469 96.71875 69.714844 96.5625 C 69.574219 96.410156 69.453125 96.238281 69.347656 96.058594 C 69.242188 95.875 69.15625 95.683594 69.089844 95.484375 C 69.027344 95.285156 68.980469 95.082031 68.960938 94.871094 C 68.9375 94.664062 68.9375 94.453125 68.957031 94.246094 C 69.113281 92.683594 70.546875 91.554688 72.117188 91.554688 L 109.085938 91.554688 C 109.292969 91.554688 109.503906 91.53125 109.707031 91.488281 C 109.914062 91.445312 110.113281 91.378906 110.304688 91.292969 C 110.496094 91.207031 110.675781 91.105469 110.847656 90.980469 C 111.019531 90.855469 111.171875 90.71875 111.3125 90.5625 C 111.453125 90.40625 111.578125 90.238281 111.683594 90.054688 C 111.789062 89.871094 111.875 89.683594 111.9375 89.480469 C 112.003906 89.28125 112.046875 89.078125 112.070312 88.867188 C 112.089844 88.660156 112.09375 88.449219 112.070312 88.242188 C 111.914062 86.679688 110.484375 85.550781 108.914062 85.550781 L 79.296875 85.550781 C 78.898438 85.550781 78.515625 85.472656 78.148438 85.320312 C 77.777344 85.167969 77.453125 84.953125 77.171875 84.671875 C 76.890625 84.390625 76.675781 84.066406 76.523438 83.699219 C 76.371094 83.328125 76.292969 82.945312 76.292969 82.550781 C 76.292969 82.152344 76.371094 81.769531 76.523438 81.402344 C 76.675781 81.03125 76.890625 80.707031 77.171875 80.425781 C 77.453125 80.144531 77.777344 79.929688 78.148438 79.777344 C 78.515625 79.625 78.898438 79.546875 79.296875 79.546875 L 109.085938 79.546875 C 109.292969 79.546875 109.503906 79.527344 109.707031 79.480469 C 109.914062 79.4375 110.113281 79.375 110.304688 79.289062 C 110.496094 79.203125 110.675781 79.097656 110.847656 78.976562 C 111.019531 78.851562 111.171875 78.710938 111.3125 78.554688 C 111.453125 78.398438 111.578125 78.230469 111.683594 78.050781 C 111.789062 77.867188 111.875 77.675781 111.9375 77.476562 C 112.003906 77.277344 112.046875 77.074219 112.070312 76.863281 C 112.089844 76.65625 112.09375 76.445312 112.070312 76.238281 C 111.914062 74.675781 110.484375 73.542969 108.914062 73.542969 L 88.21875 73.542969 C 88.007812 73.542969 87.800781 73.523438 87.59375 73.480469 C 87.386719 73.4375 87.191406 73.371094 86.996094 73.285156 C 86.804688 73.199219 86.625 73.097656 86.453125 72.972656 C 86.285156 72.847656 86.128906 72.710938 85.988281 72.554688 C 85.847656 72.398438 85.726562 72.226562 85.621094 72.046875 C 85.515625 71.863281 85.429688 71.671875 85.363281 71.472656 C 85.296875 71.273438 85.253906 71.070312 85.234375 70.859375 C 85.210938 70.652344 85.210938 70.441406 85.230469 70.234375 C 85.386719 68.671875 86.820312 67.542969 88.386719 67.542969 L 101.390625 67.542969 L 101.390625 64.09375 C 101.390625 63.699219 101.464844 63.320312 101.613281 62.957031 C 101.765625 62.59375 101.980469 62.269531 102.257812 61.992188 C 102.539062 61.714844 102.859375 61.5 103.222656 61.347656 C 103.589844 61.195312 103.96875 61.121094 104.363281 61.121094 L 170.777344 61.121094 C 171.167969 61.121094 171.550781 61.195312 171.914062 61.347656 C 172.277344 61.5 172.597656 61.714844 172.878906 61.992188 C 173.15625 62.269531 173.371094 62.59375 173.523438 62.957031 C 173.671875 63.320312 173.75 63.699219 173.75 64.09375 L 173.75 122.09375 C 173.75 122.367188 173.722656 122.636719 173.667969 122.902344 C 173.617188 123.171875 173.535156 123.433594 173.433594 123.683594 C 173.328125 123.9375 173.199219 124.175781 173.046875 124.402344 C 172.894531 124.632812 172.722656 124.839844 172.53125 125.035156 C 172.335938 125.226562 172.125 125.398438 171.898438 125.550781 C 171.671875 125.703125 171.433594 125.832031 171.179688 125.9375 C 170.929688 126.042969 170.667969 126.121094 170.398438 126.171875 C 170.132812 126.226562 169.859375 126.253906 169.585938 126.253906 L 104.363281 126.253906 C 103.96875 126.253906 103.589844 126.179688 103.222656 126.027344 C 102.859375 125.875 102.539062 125.660156 102.257812 125.382812 C 101.980469 125.105469 101.765625 124.78125 101.613281 124.417969 C 101.464844 124.054688 101.386719 123.675781 101.390625 123.28125 L 101.390625 103.558594 L 109.085938 103.558594 C 109.292969 103.558594 109.503906 103.535156 109.707031 103.492188 C 109.914062 103.449219 110.113281 103.386719 110.304688 103.300781 C 110.496094 103.214844 110.675781 103.109375 110.847656 102.988281 C 111.015625 102.863281 111.171875 102.722656 111.3125 102.566406 C 111.453125 102.410156 111.578125 102.242188 111.683594 102.058594 C 111.789062 101.878906 111.871094 101.6875 111.9375 101.488281 C 112.003906 101.289062 112.046875 101.082031 112.070312 100.875 C 112.089844 100.667969 112.09375 100.457031 112.070312 100.25 C 111.914062 98.6875 110.484375 97.554688 108.914062 97.554688 Z M 101.390625 97.554688 " fill-opacity="1" fill-rule="nonzero"/></g><g clip-path="url(#e66115e496)"><g clip-path="url(#385ecc5191)"><path fill="url(#98ee89d055)" d="M 57.285156 241.496094 L 57.285156 271.472656 L 323.535156 271.472656 L 323.535156 241.496094 Z M 57.285156 241.496094 " fill-rule="nonzero"/></g></g></svg>